<svg
  width="400"
  height="220"
  viewBox="0 0 400 220"
  fill="none"
  xmlns="http://www.w3.org/2000/svg"
>
  <rect width="400" height="220" rx="24" fill="#171312" />
  <rect x="20" y="24" width="112" height="68" rx="14" fill="#241E1C" stroke="#3D3431" />
  <rect x="34" y="42" width="44" height="10" rx="5" fill="#F3E4D8" fill-opacity="0.92" />
  <rect x="34" y="60" width="70" height="6" rx="3" fill="#8E7E76" />
  <rect x="34" y="72" width="56" height="6" rx="3" fill="#695C57" />
  <rect x="144" y="76" width="112" height="68" rx="14" fill="#211B1A" stroke="#3D3431" />
  <rect x="158" y="94" width="38" height="10" rx="5" fill="#3B82F6" fill-opacity="0.95" />
  <rect x="158" y="112" width="74" height="6" rx="3" fill="#8E7E76" />
  <rect x="158" y="124" width="60" height="6" rx="3" fill="#695C57" />
  <rect x="268" y="128" width="112" height="68" rx="14" fill="#241E1C" stroke="#3D3431" />
  <rect x="282" y="146" width="48" height="10" rx="5" fill="#A855F7" fill-opacity="0.95" />
  <rect x="282" y="164" width="74" height="6" rx="3" fill="#8E7E76" />
  <rect x="282" y="176" width="52" height="6" rx="3" fill="#695C57" />
  <circle cx="124" cy="58" r="4" fill="#2FE38A" />
  <circle cx="152" cy="82" r="4" fill="#2FE38A" />
  <circle cx="264" cy="132" r="4" fill="#2FE38A" />
  <path d="M128 58H148C154 58 159 63 159 69V82" stroke="#2FE38A" stroke-width="2.5" stroke-linecap="round" />
  <path d="M236 110H252C258 110 263 115 263 121V132" stroke="#8B5CF6" stroke-width="2.5" stroke-linecap="round" />
  <circle cx="244" cy="110" r="4" fill="#8B5CF6" />
  <path d="M74 128H114" stroke="#4A403D" stroke-width="2" stroke-linecap="round" stroke-dasharray="4 6" />
  <path d="M86 146H126" stroke="#4A403D" stroke-width="2" stroke-linecap="round" stroke-dasharray="4 6" />
  <rect x="32" y="148" width="88" height="40" rx="12" fill="#1F1A18" stroke="#342C2A" />
  <rect x="46" y="162" width="22" height="12" rx="6" fill="#2FE38A" fill-opacity="0.16" stroke="#2FE38A" />
  <rect x="74" y="165" width="26" height="6" rx="3" fill="#746762" />
</svg>
