<svg width="32" height="32" viewBox="0 0 32 32" fill="none" xmlns="http://www.w3.org/2000/svg">
<g clip-path="url(#clip0_2129_402)">
<g clip-path="url(#clip1_2129_402)">
<path d="M32 0H0V32H32V0Z" fill="white"/>
<path d="M14.1173 11.5C14.2346 11.5213 14.496 11.932 14.9013 12.732C15.3066 13.5213 15.8026 14.5453 16.3893 15.804L16.9013 16.876C17.1253 16.6307 17.3333 16.348 17.5253 16.028C17.7173 15.6973 17.9573 15.2547 18.2453 14.7C18.576 14.0707 18.8053 13.6653 18.9333 13.484C19.4453 12.7053 20 11.8787 20.5973 11.004C20.672 10.8867 20.8053 10.8067 20.9973 10.764C21.0293 10.7533 21.0826 10.748 21.1573 10.748C21.4133 10.748 21.696 10.8547 22.0053 11.068C22.3253 11.2813 22.5333 11.5 22.6293 11.724C22.6506 11.7667 22.6613 11.8467 22.6613 11.964C22.6613 12.0707 22.656 12.1507 22.6453 12.204C22.624 12.3 22.5973 12.4227 22.5653 12.572C22.544 12.7107 22.5226 12.876 22.5013 13.068C22.16 15.6707 21.9146 17.6227 21.7653 18.924C21.7226 19.2227 21.7013 19.5587 21.7013 19.932L21.6693 20.444C21.6586 20.5507 21.6533 20.6733 21.6533 20.812C21.6533 20.9507 21.6373 21.0467 21.6053 21.1C21.5733 21.1533 21.5146 21.18 21.4293 21.18C21.3653 21.18 21.2693 21.164 21.1413 21.132C20.8 21.0573 20.5386 20.924 20.3573 20.732C20.176 20.5293 20.0746 20.252 20.0533 19.9C20.0426 19.7187 20.0373 19.436 20.0373 19.052C20.0373 18.6573 20.048 18.0547 20.0693 17.244L20.0853 16.364L20.1173 15.1C20.0213 15.1853 19.776 15.5213 19.3813 16.108C18.9973 16.684 18.6186 17.2867 18.2453 17.916C17.872 18.5453 17.6266 19.0307 17.5093 19.372C17.4026 19.6387 17.296 19.836 17.1893 19.964C17.0933 20.092 16.976 20.156 16.8373 20.156C16.7093 20.156 16.544 20.0973 16.3413 19.98C15.7653 19.628 15.4133 19.1427 15.2853 18.524C15.0826 17.5747 14.832 16.588 14.5333 15.564C14.48 15.372 14.3733 15.1107 14.2133 14.78C14.064 14.4493 13.968 14.2413 13.9253 14.156L13.7173 13.74C12.16 15.8093 11.104 17.708 10.5493 19.436C10.4426 19.7987 10.3413 20.06 10.2453 20.22C10.1493 20.3693 10.0373 20.444 9.90928 20.444C9.70661 20.444 9.41861 20.2627 9.04528 19.9C8.75728 19.644 8.61328 19.356 8.61328 19.036C8.61328 18.8653 8.64528 18.6947 8.70928 18.524C9.15728 17.2013 9.82395 15.948 10.7093 14.764L11.2053 14.108C11.8773 13.2227 12.384 12.5293 12.7253 12.028C12.9813 11.6547 13.3226 11.468 13.7493 11.468C13.824 11.468 13.9466 11.4787 14.1173 11.5Z" fill="#1E1E1E"/>
</g>
</g>
<defs>
<clipPath id="clip0_2129_402">
<rect width="32" height="32" fill="white"/>
</clipPath>
<clipPath id="clip1_2129_402">
<rect width="32" height="32" fill="white"/>
</clipPath>
</defs>
</svg>
