<svg viewBox="0 0 100 100" fill="none" xmlns="http://www.w3.org/2000/svg">
  <title>Visual Studio Code</title>
  <path d="M96.4 10.8 75.8.9a6.2 6.2 0 0 0-7.1 1.2L1.3 63.6a4.2 4.2 0 0 0 0 6.1l5.5 5a4.2 4.2 0 0 0 5.3.3l81.2-61.6c2.8-2.1 6.7-.1 6.7 3.3v-.3a6.3 6.3 0 0 0-3.6-5.6Z" fill="#0065A9"/>
  <path d="m96.4 89.2-20.6 9.9a6.2 6.2 0 0 1-7.1-1.2L1.3 36.4a4.2 4.2 0 0 1 0-6.1l5.5-5a4.2 4.2 0 0 1 5.3-.3l81.2 61.6c2.8 2.1 6.7.1 6.7-3.3v.3a6.3 6.3 0 0 1-3.6 5.6Z" fill="#007ACC"/>
  <path d="M75.8 99.1a6.2 6.2 0 0 1-7.1-1.2c2.3 2.3 6.3.7 6.3-2.6V4.7c0-3.3-4-4.9-6.3-2.6A6.2 6.2 0 0 1 75.8.9l20.6 9.9a6.3 6.3 0 0 1 3.6 5.6v67.2a6.3 6.3 0 0 1-3.6 5.6l-20.6 9.9Z" fill="#1F9CF0"/>
</svg>
