<svg viewBox="0 0 258 186" fill="none" xmlns="http://www.w3.org/2000/svg">
<rect x="19.7308" y="0.48125" width="218.488" height="266.613" stroke="url(#paint0_linear_2159_141)" stroke-opacity="0.4" stroke-width="0.9625"/>
<path d="M40.0166 64.1975C39.4391 64.1975 38.9232 64.0396 38.4689 63.7239C38.0223 63.4005 37.6681 62.9231 37.4063 62.2917C37.1445 61.6526 37.0136 60.8634 37.0136 59.924C37.0136 59.0385 37.133 58.2762 37.3717 57.6371C37.6181 56.998 37.9684 56.5052 38.4227 56.1587C38.877 55.8045 39.4237 55.6274 40.0628 55.6274C40.5633 55.6274 41.0061 55.739 41.3911 55.9623C41.7838 56.1856 42.111 56.4975 42.3728 56.8979C42.6346 57.2906 42.8233 57.7449 42.9388 58.2608L41.8993 58.3301C41.7684 57.8219 41.5489 57.4061 41.2409 57.0827C40.9406 56.7593 40.5479 56.5976 40.0628 56.5976C39.4237 56.5976 38.9271 56.8863 38.5729 57.4638C38.2264 58.0413 38.0531 58.8614 38.0531 59.924C38.0531 60.9789 38.2302 61.7951 38.5844 62.3726C38.9463 62.9424 39.4545 63.2273 40.109 63.2273C40.6942 63.2273 41.1562 63.004 41.495 62.5574C41.8415 62.1031 42.0263 61.5217 42.0494 60.8133H40.0859V59.8662H42.9734V64.0127H42.0494L42.0263 62.8808C41.8338 63.2812 41.5759 63.6007 41.2525 63.8394C40.9368 64.0781 40.5248 64.1975 40.0166 64.1975ZM44.0777 64.0127V55.8122H49.0673V56.7824H45.071V59.4273H48.9287V60.3744H45.071V63.0425H49.1597V64.0127H44.0777ZM52.47 64.0127V56.7824H49.9637V55.8122H55.9697V56.7824H53.4633V64.0127H52.47ZM63.5837 64.0127V55.8122H64.5539V58.8498C64.7156 58.4725 64.9581 58.1953 65.2815 58.0182C65.6049 57.8411 65.9745 57.7526 66.3903 57.7526C67.0525 57.7526 67.5569 57.9682 67.9034 58.3994C68.2576 58.8306 68.4347 59.3888 68.4347 60.0741V64.0127H67.4645V60.3513C67.4645 59.1886 67.0371 58.6073 66.1824 58.6073C65.6896 58.6073 65.2931 58.7574 64.9928 59.0577C64.7002 59.358 64.5539 59.7931 64.5539 60.3629V64.0127H63.5837ZM73.2581 64.0127C72.08 64.0127 71.4909 63.4506 71.4909 62.3264V58.7459H69.4697V57.8912H71.4909V56.459H72.4611V57.8912H74.8982V58.7459H72.4611V62.3264C72.4611 62.8808 72.7268 63.158 73.2581 63.158H74.8982V64.0127H73.2581ZM79.7215 64.0127C78.5434 64.0127 77.9544 63.4506 77.9544 62.3264V58.7459H75.9331V57.8912H77.9544V56.459H78.9246V57.8912H81.3616V58.7459H78.9246V62.3264C78.9246 62.8808 79.1902 63.158 79.7215 63.158H81.3616V64.0127H79.7215ZM82.7431 65.7452V57.8912H83.644L83.6556 58.8729C83.8404 58.511 84.0945 58.2338 84.4179 58.0413C84.749 57.8488 85.1224 57.7526 85.5382 57.7526C86.1465 57.7526 86.6432 57.9027 87.0282 58.203C87.4209 58.5033 87.7096 58.896 87.8944 59.3811C88.0792 59.8662 88.1716 60.3898 88.1716 60.9519C88.1716 61.514 88.0792 62.0376 87.8944 62.5227C87.7096 63.0078 87.4209 63.4005 87.0282 63.7008C86.6432 64.0011 86.1465 64.1513 85.5382 64.1513C85.1378 64.1513 84.7721 64.0666 84.441 63.8972C84.1176 63.7278 83.875 63.4968 83.7133 63.2042V65.7452H82.7431ZM85.4458 63.2273C85.9771 63.2273 86.3929 63.0271 86.6932 62.6267C87.0012 62.2263 87.1552 61.668 87.1552 60.9519C87.1552 60.2358 87.0012 59.6776 86.6932 59.2772C86.3929 58.8768 85.9771 58.6766 85.4458 58.6766C84.9145 58.6766 84.491 58.8691 84.1753 59.2541C83.8673 59.6314 83.7133 60.1973 83.7133 60.9519C83.7133 61.6988 83.8673 62.2648 84.1753 62.6498C84.4833 63.0348 84.9068 63.2273 85.4458 63.2273ZM91.8631 64.1513C91.3318 64.1513 90.8737 64.0589 90.4887 63.8741C90.1037 63.6893 89.7995 63.4429 89.5762 63.1349C89.3606 62.8192 89.2374 62.4688 89.2066 62.0838L90.223 62.0145C90.2846 62.3918 90.4502 62.6883 90.7197 62.9039C90.9969 63.1195 91.378 63.2273 91.8631 63.2273C92.3174 63.2273 92.6678 63.1618 92.9142 63.0309C93.1683 62.9 93.2953 62.696 93.2953 62.4188C93.2953 62.2417 93.253 62.0954 93.1683 61.9799C93.0836 61.8644 92.9257 61.7681 92.6947 61.6911C92.4637 61.6064 92.1249 61.5256 91.6783 61.4486C91.0854 61.3408 90.6196 61.2099 90.2808 61.0559C89.9497 60.8942 89.7148 60.694 89.5762 60.4553C89.4376 60.2166 89.3683 59.9317 89.3683 59.6006C89.3683 59.0693 89.5685 58.6304 89.9689 58.2839C90.3693 57.9297 90.943 57.7526 91.6899 57.7526C92.1981 57.7526 92.6216 57.845 92.9604 58.0298C93.3069 58.2069 93.5802 58.4456 93.7804 58.7459C93.9806 59.0385 94.1115 59.3619 94.1731 59.7161L93.1567 59.7854C93.0874 59.462 92.9257 59.1963 92.6716 58.9884C92.4252 58.7805 92.0941 58.6766 91.6783 58.6766C91.2317 58.6766 90.9006 58.7651 90.685 58.9422C90.4694 59.1193 90.3616 59.3388 90.3616 59.6006C90.3616 59.9086 90.4771 60.128 90.7081 60.2589C90.9391 60.3898 91.3318 60.5015 91.8862 60.5939C92.5176 60.694 93.0066 60.8249 93.3531 60.9866C93.6996 61.1406 93.9421 61.3331 94.0807 61.5641C94.2193 61.7951 94.2886 62.08 94.2886 62.4188C94.2886 62.7807 94.1808 63.0925 93.9652 63.3543C93.7573 63.6084 93.4686 63.8048 93.099 63.9434C92.7371 64.082 92.3251 64.1513 91.8631 64.1513ZM97.495 64.0127V62.6036H98.9272V64.0127H97.495ZM97.495 59.5544V58.1453H98.9272V59.5544H97.495ZM102.457 65.2832L105.968 55.3502H106.892L103.381 65.2832H102.457ZM108.92 65.2832L112.432 55.3502H113.356L109.844 65.2832H108.92ZM116.793 64.1513C116.408 64.1513 116.062 64.082 115.754 63.9434C115.446 63.8048 115.203 63.6123 115.026 63.3659C114.849 63.1118 114.76 62.8192 114.76 62.4881C114.76 61.9645 114.914 61.5602 115.222 61.2753C115.538 60.9827 116.031 60.771 116.701 60.6401L118.757 60.2243C118.757 59.7007 118.637 59.3118 118.399 59.0577C118.168 58.8036 117.833 58.6766 117.394 58.6766C116.97 58.6766 116.639 58.7728 116.4 58.9653C116.162 59.1501 115.996 59.4196 115.904 59.7738L114.876 59.693C114.991 59.1155 115.265 58.6496 115.696 58.2954C116.135 57.9335 116.701 57.7526 117.394 57.7526C118.133 57.7526 118.707 57.9759 119.115 58.4225C119.523 58.8614 119.727 59.4697 119.727 60.2474V62.7884C119.727 62.927 119.758 63.0232 119.819 63.0771C119.881 63.131 119.973 63.158 120.096 63.158H120.489V64.0127C120.366 64.0281 120.196 64.0358 119.981 64.0358C119.642 64.0358 119.373 63.9665 119.172 63.8279C118.98 63.6893 118.853 63.4621 118.791 63.1464C118.63 63.4467 118.364 63.6893 117.994 63.8741C117.632 64.0589 117.232 64.1513 116.793 64.1513ZM116.885 63.2966C117.509 63.2966 117.975 63.1387 118.283 62.823C118.599 62.5073 118.757 62.0954 118.757 61.5872V61.0559L116.885 61.4255C116.47 61.5025 116.181 61.6218 116.019 61.7835C115.858 61.9375 115.777 62.1416 115.777 62.3957C115.777 62.6806 115.873 62.9039 116.065 63.0656C116.266 63.2196 116.539 63.2966 116.885 63.2966ZM121.524 65.7452V57.8912H122.425L122.437 58.8729C122.621 58.511 122.875 58.2338 123.199 58.0413C123.53 57.8488 123.903 57.7526 124.319 57.7526C124.927 57.7526 125.424 57.9027 125.809 58.203C126.202 58.5033 126.491 58.896 126.675 59.3811C126.86 59.8662 126.953 60.3898 126.953 60.9519C126.953 61.514 126.86 62.0376 126.675 62.5227C126.491 63.0078 126.202 63.4005 125.809 63.7008C125.424 64.0011 124.927 64.1513 124.319 64.1513C123.919 64.1513 123.553 64.0666 123.222 63.8972C122.899 63.7278 122.656 63.4968 122.494 63.2042V65.7452H121.524ZM124.227 63.2273C124.758 63.2273 125.174 63.0271 125.474 62.6267C125.782 62.2263 125.936 61.668 125.936 60.9519C125.936 60.2358 125.782 59.6776 125.474 59.2772C125.174 58.8768 124.758 58.6766 124.227 58.6766C123.695 58.6766 123.272 58.8691 122.956 59.2541C122.648 59.6314 122.494 60.1973 122.494 60.9519C122.494 61.6988 122.648 62.2648 122.956 62.6498C123.264 63.0348 123.688 63.2273 124.227 63.2273ZM127.988 64.0127V63.158H130.448V58.7459H128.103V57.8912H131.418V63.158H133.532V64.0127H127.988ZM130.355 56.9325V55.8006H131.372V56.9325H130.355ZM136.276 64.0127V62.6036H137.708V64.0127H136.276ZM140.453 64.0127V57.8912H141.342L141.365 58.7921C141.473 58.4687 141.627 58.2146 141.827 58.0298C142.035 57.845 142.285 57.7526 142.578 57.7526C143.201 57.7526 143.586 58.1568 143.733 58.9653C143.833 58.588 143.995 58.2916 144.218 58.076C144.449 57.8604 144.726 57.7526 145.049 57.7526C145.542 57.7526 145.9 57.922 146.124 58.2608C146.347 58.5996 146.459 59.1617 146.459 59.9471V64.0127H145.488V60.0857C145.488 59.539 145.431 59.1578 145.315 58.9422C145.2 58.7189 145.019 58.6073 144.772 58.6073C144.534 58.6073 144.333 58.7266 144.172 58.9653C144.018 59.204 143.941 59.5852 143.941 60.1088V64.0127H142.97V60.0857C142.97 59.5621 142.913 59.1848 142.797 58.9538C142.689 58.7228 142.508 58.6073 142.254 58.6073C142.016 58.6073 141.815 58.7266 141.654 58.9653C141.5 59.204 141.423 59.5852 141.423 60.1088V64.0127H140.453ZM149.111 64.1513C148.726 64.1513 148.379 64.082 148.071 63.9434C147.763 63.8048 147.52 63.6123 147.343 63.3659C147.166 63.1118 147.078 62.8192 147.078 62.4881C147.078 61.9645 147.232 61.5602 147.54 61.2753C147.855 60.9827 148.348 60.771 149.018 60.6401L151.074 60.2243C151.074 59.7007 150.955 59.3118 150.716 59.0577C150.485 58.8036 150.15 58.6766 149.711 58.6766C149.288 58.6766 148.957 58.7728 148.718 58.9653C148.479 59.1501 148.314 59.4196 148.221 59.7738L147.193 59.693C147.309 59.1155 147.582 58.6496 148.013 58.2954C148.452 57.9335 149.018 57.7526 149.711 57.7526C150.45 57.7526 151.024 57.9759 151.432 58.4225C151.84 58.8614 152.044 59.4697 152.044 60.2474V62.7884C152.044 62.927 152.075 63.0232 152.137 63.0771C152.198 63.131 152.291 63.158 152.414 63.158H152.807V64.0127C152.683 64.0281 152.514 64.0358 152.298 64.0358C151.96 64.0358 151.69 63.9665 151.49 63.8279C151.297 63.6893 151.17 63.4621 151.109 63.1464C150.947 63.4467 150.681 63.6893 150.312 63.8741C149.95 64.0589 149.549 64.1513 149.111 64.1513ZM149.203 63.2966C149.827 63.2966 150.292 63.1387 150.6 62.823C150.916 62.5073 151.074 62.0954 151.074 61.5872V61.0559L149.203 61.4255C148.787 61.5025 148.498 61.6218 148.337 61.7835C148.175 61.9375 148.094 62.1416 148.094 62.3957C148.094 62.6806 148.19 62.9039 148.383 63.0656C148.583 63.2196 148.856 63.2966 149.203 63.2966ZM153.957 64.0127V63.158H155.551V58.7459H153.957V57.8912H156.359L156.429 59.0693C156.637 58.2839 157.126 57.8912 157.896 57.8912H159.154V58.769H157.907C157.46 58.769 157.118 58.9037 156.879 59.1732C156.64 59.435 156.521 59.8162 156.521 60.3167V63.158H158.461V64.0127H153.957ZM163.227 64.1513C162.804 64.1513 162.426 64.0589 162.095 63.8741C161.764 63.6816 161.51 63.4198 161.333 63.0887L161.298 64.0127H160.42V55.8122H161.391V58.7459C161.545 58.4918 161.783 58.2646 162.107 58.0644C162.43 57.8565 162.804 57.7526 163.227 57.7526C163.766 57.7526 164.232 57.8835 164.625 58.1453C165.017 58.4071 165.318 58.7767 165.526 59.2541C165.741 59.7315 165.849 60.2974 165.849 60.9519C165.849 61.6064 165.741 62.1724 165.526 62.6498C165.318 63.1272 165.017 63.4968 164.625 63.7586C164.232 64.0204 163.766 64.1513 163.227 64.1513ZM163.169 63.2273C163.685 63.2273 164.09 63.0232 164.382 62.6151C164.682 62.207 164.833 61.6526 164.833 60.9519C164.833 60.2435 164.682 59.6891 164.382 59.2887C164.09 58.8806 163.693 58.6766 163.192 58.6766C162.63 58.6766 162.188 58.8806 161.864 59.2887C161.549 59.6891 161.391 60.2435 161.391 60.9519C161.391 61.6526 161.549 62.207 161.864 62.6151C162.18 63.0232 162.615 63.2273 163.169 63.2273ZM166.537 64.0127V63.158H168.998V57.4523C168.998 57.2059 168.928 57.0134 168.79 56.8748C168.651 56.7362 168.459 56.6669 168.212 56.6669H166.768V55.8122H168.258C169.398 55.8122 169.968 56.382 169.968 57.5216V63.158H172.081V64.0127H166.537ZM175.877 64.1513C175.299 64.1513 174.799 64.0204 174.375 63.7586C173.96 63.4968 173.636 63.1272 173.405 62.6498C173.182 62.1647 173.07 61.5987 173.07 60.9519C173.07 60.3051 173.182 59.743 173.405 59.2656C173.636 58.7882 173.956 58.4186 174.364 58.1568C174.78 57.8873 175.269 57.7526 175.831 57.7526C176.362 57.7526 176.832 57.8796 177.24 58.1337C177.648 58.3801 177.967 58.742 178.198 59.2194C178.429 59.6968 178.545 60.2782 178.545 60.9635V61.2522H174.087C174.125 61.9067 174.298 62.3995 174.606 62.7306C174.922 63.0617 175.346 63.2273 175.877 63.2273C176.277 63.2273 176.605 63.1349 176.859 62.9501C177.12 62.7576 177.301 62.5073 177.402 62.1993L178.441 62.2802C178.279 62.8269 177.971 63.2773 177.517 63.6315C177.07 63.978 176.524 64.1513 175.877 64.1513ZM174.087 60.3975H177.482C177.436 59.8046 177.263 59.3696 176.963 59.0924C176.662 58.8152 176.285 58.6766 175.831 58.6766C175.361 58.6766 174.972 58.8229 174.664 59.1155C174.364 59.4004 174.171 59.8277 174.087 60.3975ZM182.398 64.1513C181.828 64.1513 181.332 64.0204 180.908 63.7586C180.485 63.4968 180.157 63.1272 179.926 62.6498C179.695 62.1647 179.58 61.5987 179.58 60.9519C179.58 60.3051 179.695 59.743 179.926 59.2656C180.157 58.7882 180.485 58.4186 180.908 58.1568C181.332 57.8873 181.828 57.7526 182.398 57.7526C183.083 57.7526 183.649 57.9374 184.096 58.307C184.55 58.6689 184.839 59.1925 184.962 59.8778L183.946 59.9471C183.853 59.539 183.669 59.2271 183.391 59.0115C183.122 58.7882 182.791 58.6766 182.398 58.6766C181.836 58.6766 181.393 58.8806 181.07 59.2887C180.754 59.6891 180.596 60.2435 180.596 60.9519C180.596 61.6603 180.754 62.2186 181.07 62.6267C181.393 63.0271 181.836 63.2273 182.398 63.2273C182.791 63.2273 183.13 63.1118 183.415 62.8808C183.707 62.6498 183.9 62.3033 183.992 61.8413L185.008 61.9106C184.885 62.5882 184.589 63.131 184.119 63.5391C183.657 63.9472 183.083 64.1513 182.398 64.1513ZM185.697 64.0127V57.8912H186.586L186.609 58.7921C186.717 58.4687 186.871 58.2146 187.071 58.0298C187.279 57.845 187.53 57.7526 187.822 57.7526C188.446 57.7526 188.831 58.1568 188.977 58.9653C189.077 58.588 189.239 58.2916 189.462 58.076C189.693 57.8604 189.97 57.7526 190.294 57.7526C190.787 57.7526 191.145 57.922 191.368 58.2608C191.591 58.5996 191.703 59.1617 191.703 59.9471V64.0127H190.733V60.0857C190.733 59.539 190.675 59.1578 190.559 58.9422C190.444 58.7189 190.263 58.6073 190.017 58.6073C189.778 58.6073 189.578 58.7266 189.416 58.9653C189.262 59.204 189.185 59.5852 189.185 60.1088V64.0127H188.215V60.0857C188.215 59.5621 188.157 59.1848 188.042 58.9538C187.934 58.7228 187.753 58.6073 187.499 58.6073C187.26 58.6073 187.06 58.7266 186.898 58.9653C186.744 59.204 186.667 59.5852 186.667 60.1088V64.0127H185.697ZM195.279 64.1513C194.748 64.1513 194.289 64.0589 193.904 63.8741C193.519 63.6893 193.215 63.4429 192.992 63.1349C192.776 62.8192 192.653 62.4688 192.622 62.0838L193.639 62.0145C193.7 62.3918 193.866 62.6883 194.135 62.9039C194.413 63.1195 194.794 63.2273 195.279 63.2273C195.733 63.2273 196.084 63.1618 196.33 63.0309C196.584 62.9 196.711 62.696 196.711 62.4188C196.711 62.2417 196.669 62.0954 196.584 61.9799C196.499 61.8644 196.342 61.7681 196.111 61.6911C195.88 61.6064 195.541 61.5256 195.094 61.4486C194.501 61.3408 194.035 61.2099 193.697 61.0559C193.365 60.8942 193.131 60.694 192.992 60.4553C192.853 60.2166 192.784 59.9317 192.784 59.6006C192.784 59.0693 192.984 58.6304 193.385 58.2839C193.785 57.9297 194.359 57.7526 195.106 57.7526C195.614 57.7526 196.037 57.845 196.376 58.0298C196.723 58.2069 196.996 58.4456 197.196 58.7459C197.396 59.0385 197.527 59.3619 197.589 59.7161L196.573 59.7854C196.503 59.462 196.342 59.1963 196.087 58.9884C195.841 58.7805 195.51 58.6766 195.094 58.6766C194.648 58.6766 194.316 58.7651 194.101 58.9422C193.885 59.1193 193.777 59.3388 193.777 59.6006C193.777 59.9086 193.893 60.128 194.124 60.2589C194.355 60.3898 194.748 60.5015 195.302 60.5939C195.933 60.694 196.422 60.8249 196.769 60.9866C197.115 61.1406 197.358 61.3331 197.497 61.5641C197.635 61.7951 197.704 62.08 197.704 62.4188C197.704 62.7807 197.597 63.0925 197.381 63.3543C197.173 63.6084 196.884 63.8048 196.515 63.9434C196.153 64.082 195.741 64.1513 195.279 64.1513ZM200.911 64.0127V62.6036H202.343V64.0127H200.911ZM208.252 64.1513C207.682 64.1513 207.186 64.0204 206.762 63.7586C206.339 63.4968 206.011 63.1272 205.78 62.6498C205.549 62.1647 205.434 61.5987 205.434 60.9519C205.434 60.3051 205.549 59.743 205.78 59.2656C206.011 58.7882 206.339 58.4186 206.762 58.1568C207.186 57.8873 207.682 57.7526 208.252 57.7526C208.937 57.7526 209.503 57.9374 209.95 58.307C210.404 58.6689 210.693 59.1925 210.816 59.8778L209.8 59.9471C209.707 59.539 209.523 59.2271 209.245 59.0115C208.976 58.7882 208.645 58.6766 208.252 58.6766C207.69 58.6766 207.247 58.8806 206.924 59.2887C206.608 59.6891 206.45 60.2435 206.45 60.9519C206.45 61.6603 206.608 62.2186 206.924 62.6267C207.247 63.0271 207.69 63.2273 208.252 63.2273C208.645 63.2273 208.984 63.1118 209.269 62.8808C209.561 62.6498 209.754 62.3033 209.846 61.8413L210.862 61.9106C210.739 62.5882 210.443 63.131 209.973 63.5391C209.511 63.9472 208.937 64.1513 208.252 64.1513ZM214.554 64.1513C213.992 64.1513 213.499 64.0204 213.075 63.7586C212.66 63.4968 212.336 63.1272 212.105 62.6498C211.874 62.1647 211.759 61.5987 211.759 60.9519C211.759 60.2974 211.874 59.7315 212.105 59.2541C212.336 58.7767 212.66 58.4071 213.075 58.1453C213.499 57.8835 213.992 57.7526 214.554 57.7526C215.116 57.7526 215.605 57.8835 216.021 58.1453C216.444 58.4071 216.771 58.7767 217.002 59.2541C217.233 59.7315 217.349 60.2974 217.349 60.9519C217.349 61.5987 217.233 62.1647 217.002 62.6498C216.771 63.1272 216.444 63.4968 216.021 63.7586C215.605 64.0204 215.116 64.1513 214.554 64.1513ZM214.554 63.2273C215.116 63.2273 215.551 63.0271 215.859 62.6267C216.175 62.2186 216.333 61.6603 216.333 60.9519C216.333 60.2435 216.175 59.6891 215.859 59.2887C215.551 58.8806 215.116 58.6766 214.554 58.6766C213.992 58.6766 213.553 58.8806 213.237 59.2887C212.929 59.6891 212.775 60.2435 212.775 60.9519C212.775 61.6603 212.929 62.2186 213.237 62.6267C213.553 63.0271 213.992 63.2273 214.554 63.2273ZM218.014 64.0127V57.8912H218.904L218.927 58.7921C219.035 58.4687 219.189 58.2146 219.389 58.0298C219.597 57.845 219.847 57.7526 220.14 57.7526C220.763 57.7526 221.148 58.1568 221.295 58.9653C221.395 58.588 221.556 58.2916 221.78 58.076C222.011 57.8604 222.288 57.7526 222.611 57.7526C223.104 57.7526 223.462 57.922 223.685 58.2608C223.909 58.5996 224.02 59.1617 224.02 59.9471V64.0127H223.05V60.0857C223.05 59.539 222.992 59.1578 222.877 58.9422C222.761 58.7189 222.58 58.6073 222.334 58.6073C222.095 58.6073 221.895 58.7266 221.733 58.9653C221.579 59.204 221.502 59.5852 221.502 60.1088V64.0127H220.532V60.0857C220.532 59.5621 220.475 59.1848 220.359 58.9538C220.251 58.7228 220.07 58.6073 219.816 58.6073C219.577 58.6073 219.377 58.7266 219.216 58.9653C219.062 59.204 218.985 59.5852 218.985 60.1088V64.0127H218.014ZM225.263 65.2832L228.774 55.3502H229.698L226.187 65.2832H225.263ZM36.875 81.0127L39.3698 72.8122H40.7096L43.2044 81.0127H42.1418L41.4719 78.6796H38.6075L37.9376 81.0127H36.875ZM40.0397 73.7131L38.8847 77.7094H41.1947L40.0397 73.7131ZM46.0758 81.1513C45.4675 81.1513 44.9824 80.9472 44.6205 80.5391C44.2586 80.1233 44.0777 79.5535 44.0777 78.8297V74.8912H45.0479V78.5641C45.0479 79.157 45.1518 79.5959 45.3597 79.8808C45.5753 80.158 45.9026 80.2966 46.3415 80.2966C46.8189 80.2966 47.1962 80.1426 47.4734 79.8346C47.7506 79.5189 47.8892 79.0877 47.8892 78.541V74.8912H48.8594V81.0127H47.9354V80.0194C47.5966 80.774 46.9767 81.1513 46.0758 81.1513ZM53.8676 81.0127C52.6895 81.0127 52.1004 80.4506 52.1004 79.3264V75.7459H50.0792V74.8912H52.1004V73.459H53.0706V74.8912H55.5077V75.7459H53.0706V79.3264C53.0706 79.8808 53.3363 80.158 53.8676 80.158H55.5077V81.0127H53.8676ZM57.1202 81.0127V72.8122H58.0904V75.8498C58.2521 75.4725 58.4946 75.1953 58.818 75.0182C59.1414 74.8411 59.511 74.7526 59.9268 74.7526C60.589 74.7526 61.0934 74.9682 61.4399 75.3994C61.7941 75.8306 61.9712 76.3888 61.9712 77.0741V81.0127H61.001V77.3513C61.001 76.1886 60.5736 75.6073 59.7189 75.6073C59.2261 75.6073 58.8296 75.7574 58.5293 76.0577C58.2367 76.358 58.0904 76.7931 58.0904 77.3629V81.0127H57.1202ZM65.8937 81.1513C65.3316 81.1513 64.8388 81.0204 64.4153 80.7586C63.9995 80.4968 63.6761 80.1272 63.4451 79.6498C63.2141 79.1647 63.0986 78.5987 63.0986 77.9519C63.0986 77.2974 63.2141 76.7315 63.4451 76.2541C63.6761 75.7767 63.9995 75.4071 64.4153 75.1453C64.8388 74.8835 65.3316 74.7526 65.8937 74.7526C66.4558 74.7526 66.9447 74.8835 67.3605 75.1453C67.784 75.4071 68.1113 75.7767 68.3423 76.2541C68.5733 76.7315 68.6888 77.2974 68.6888 77.9519C68.6888 78.5987 68.5733 79.1647 68.3423 79.6498C68.1113 80.1272 67.784 80.4968 67.3605 80.7586C66.9447 81.0204 66.4558 81.1513 65.8937 81.1513ZM65.8937 80.2273C66.4558 80.2273 66.8908 80.0271 67.1988 79.6267C67.5145 79.2186 67.6724 78.6603 67.6724 77.9519C67.6724 77.2435 67.5145 76.6891 67.1988 76.2887C66.8908 75.8806 66.4558 75.6766 65.8937 75.6766C65.3316 75.6766 64.8927 75.8806 64.577 76.2887C64.269 76.6891 64.115 77.2435 64.115 77.9519C64.115 78.6603 64.269 79.2186 64.577 79.6267C64.8927 80.0271 65.3316 80.2273 65.8937 80.2273ZM69.9317 81.0127V80.158H71.5256V75.7459H69.9317V74.8912H72.3341L72.4034 76.0693C72.6113 75.2839 73.1002 74.8912 73.8702 74.8912H75.1292V75.769H73.8818C73.4352 75.769 73.0925 75.9037 72.8538 76.1732C72.6151 76.435 72.4958 76.8162 72.4958 77.3167V80.158H74.4362V81.0127H69.9317ZM76.2796 81.0127V80.158H78.7398V75.7459H76.3951V74.8912H79.71V80.158H81.8236V81.0127H76.2796ZM78.6474 73.9325V72.8006H79.6638V73.9325H78.6474ZM82.7662 81.0127V80.0425L86.647 75.7459H82.8817V74.8912H87.7096V75.8614L83.8288 80.158H87.802V81.0127H82.7662ZM90.9391 81.1513C90.5541 81.1513 90.2076 81.082 89.8996 80.9434C89.5916 80.8048 89.3491 80.6123 89.172 80.3659C88.9949 80.1118 88.9063 79.8192 88.9063 79.4881C88.9063 78.9645 89.0603 78.5602 89.3683 78.2753C89.684 77.9827 90.1768 77.771 90.8467 77.6401L92.9026 77.2243C92.9026 76.7007 92.7833 76.3118 92.5446 76.0577C92.3136 75.8036 91.9786 75.6766 91.5397 75.6766C91.1162 75.6766 90.7851 75.7728 90.5464 75.9653C90.3077 76.1501 90.1422 76.4196 90.0498 76.7738L89.0218 76.693C89.1373 76.1155 89.4107 75.6496 89.8419 75.2954C90.2808 74.9335 90.8467 74.7526 91.5397 74.7526C92.2789 74.7526 92.8526 74.9759 93.2607 75.4225C93.6688 75.8614 93.8728 76.4697 93.8728 77.2474V79.7884C93.8728 79.927 93.9036 80.0232 93.9652 80.0771C94.0268 80.131 94.1192 80.158 94.2424 80.158H94.6351V81.0127C94.5119 81.0281 94.3425 81.0358 94.1269 81.0358C93.7881 81.0358 93.5186 80.9665 93.3184 80.8279C93.1259 80.6893 92.9989 80.4621 92.9373 80.1464C92.7756 80.4467 92.5099 80.6893 92.1403 80.8741C91.7784 81.0589 91.378 81.1513 90.9391 81.1513ZM91.0315 80.2966C91.6552 80.2966 92.1211 80.1387 92.4291 79.823C92.7448 79.5073 92.9026 79.0954 92.9026 78.5872V78.0559L91.0315 78.4255C90.6157 78.5025 90.327 78.6218 90.1653 78.7835C90.0036 78.9375 89.9227 79.1416 89.9227 79.3957C89.9227 79.6806 90.019 79.9039 90.2115 80.0656C90.4117 80.2196 90.685 80.2966 91.0315 80.2966ZM99.112 81.0127C97.9339 81.0127 97.3449 80.4506 97.3449 79.3264V75.7459H95.3236V74.8912H97.3449V73.459H98.3151V74.8912H100.752V75.7459H98.3151V79.3264C98.3151 79.8808 98.5807 80.158 99.112 80.158H100.752V81.0127H99.112ZM102.134 81.0127V80.158H104.594V75.7459H102.249V74.8912H105.564V80.158H107.678V81.0127H102.134ZM104.501 73.9325V72.8006H105.518V73.9325H104.501ZM111.138 81.1513C110.576 81.1513 110.083 81.0204 109.66 80.7586C109.244 80.4968 108.92 80.1272 108.689 79.6498C108.458 79.1647 108.343 78.5987 108.343 77.9519C108.343 77.2974 108.458 76.7315 108.689 76.2541C108.92 75.7767 109.244 75.4071 109.66 75.1453C110.083 74.8835 110.576 74.7526 111.138 74.7526C111.7 74.7526 112.189 74.8835 112.605 75.1453C113.028 75.4071 113.356 75.7767 113.587 76.2541C113.818 76.7315 113.933 77.2974 113.933 77.9519C113.933 78.5987 113.818 79.1647 113.587 79.6498C113.356 80.1272 113.028 80.4968 112.605 80.7586C112.189 81.0204 111.7 81.1513 111.138 81.1513ZM111.138 80.2273C111.7 80.2273 112.135 80.0271 112.443 79.6267C112.759 79.2186 112.917 78.6603 112.917 77.9519C112.917 77.2435 112.759 76.6891 112.443 76.2887C112.135 75.8806 111.7 75.6766 111.138 75.6766C110.576 75.6766 110.137 75.8806 109.821 76.2887C109.513 76.6891 109.359 77.2435 109.359 77.9519C109.359 78.6603 109.513 79.2186 109.821 79.6267C110.137 80.0271 110.576 80.2273 111.138 80.2273ZM115.107 81.0127V74.8912H115.996L116.019 75.9884C116.181 75.5726 116.439 75.2646 116.793 75.0644C117.155 74.8565 117.548 74.7526 117.971 74.7526C118.441 74.7526 118.83 74.8565 119.138 75.0644C119.453 75.2723 119.692 75.5534 119.854 75.9076C120.016 76.2541 120.096 76.6429 120.096 77.0741V81.0127H119.126V77.3513C119.126 76.7815 119.015 76.3503 118.791 76.0577C118.568 75.7574 118.225 75.6073 117.763 75.6073C117.294 75.6073 116.893 75.7574 116.562 76.0577C116.239 76.3503 116.077 76.7815 116.077 77.3513V81.0127H115.107ZM123.349 81.0127V79.6036H124.781V81.0127H123.349ZM123.349 76.5544V75.1453H124.781V76.5544H123.349ZM134.567 81.0127V72.8122H136.877C137.777 72.8122 138.455 73.0124 138.909 73.4128C139.371 73.8132 139.602 74.3599 139.602 75.0529C139.602 75.4995 139.468 75.8806 139.198 76.1963C138.929 76.5043 138.567 76.7007 138.112 76.7854C138.69 76.8624 139.14 77.0741 139.464 77.4206C139.787 77.7594 139.949 78.1945 139.949 78.7258C139.949 79.4342 139.702 79.9924 139.21 80.4005C138.717 80.8086 138.035 81.0127 137.165 81.0127H134.567ZM135.56 76.358H136.923C137.493 76.358 137.908 76.2464 138.17 76.0231C138.432 75.7998 138.563 75.4841 138.563 75.076C138.563 74.6602 138.432 74.3406 138.17 74.1173C137.908 73.894 137.493 73.7824 136.923 73.7824H135.56V76.358ZM135.56 80.0425H137.177C137.77 80.0425 138.205 79.927 138.482 79.696C138.767 79.465 138.909 79.1416 138.909 78.7258C138.909 78.2869 138.763 77.9442 138.47 77.6978C138.178 77.4514 137.747 77.3282 137.177 77.3282H135.56V80.0425ZM143.559 81.1513C142.982 81.1513 142.481 81.0204 142.058 80.7586C141.642 80.4968 141.319 80.1272 141.088 79.6498C140.864 79.1647 140.753 78.5987 140.753 77.9519C140.753 77.3051 140.864 76.743 141.088 76.2656C141.319 75.7882 141.638 75.4186 142.046 75.1568C142.462 74.8873 142.951 74.7526 143.513 74.7526C144.045 74.7526 144.514 74.8796 144.922 75.1337C145.33 75.3801 145.65 75.742 145.881 76.2194C146.112 76.6968 146.228 77.2782 146.228 77.9635V78.2522H141.769C141.808 78.9067 141.981 79.3995 142.289 79.7306C142.605 80.0617 143.028 80.2273 143.559 80.2273C143.96 80.2273 144.287 80.1349 144.541 79.9501C144.803 79.7576 144.984 79.5073 145.084 79.1993L146.124 79.2802C145.962 79.8269 145.654 80.2773 145.2 80.6315C144.753 80.978 144.206 81.1513 143.559 81.1513ZM141.769 77.3975H145.165C145.119 76.8046 144.945 76.3696 144.645 76.0924C144.345 75.8152 143.968 75.6766 143.513 75.6766C143.044 75.6766 142.655 75.8229 142.347 76.1155C142.046 76.4004 141.854 76.8277 141.769 77.3975ZM149.111 81.1513C148.726 81.1513 148.379 81.082 148.071 80.9434C147.763 80.8048 147.52 80.6123 147.343 80.3659C147.166 80.1118 147.078 79.8192 147.078 79.4881C147.078 78.9645 147.232 78.5602 147.54 78.2753C147.855 77.9827 148.348 77.771 149.018 77.6401L151.074 77.2243C151.074 76.7007 150.955 76.3118 150.716 76.0577C150.485 75.8036 150.15 75.6766 149.711 75.6766C149.288 75.6766 148.957 75.7728 148.718 75.9653C148.479 76.1501 148.314 76.4196 148.221 76.7738L147.193 76.693C147.309 76.1155 147.582 75.6496 148.013 75.2954C148.452 74.9335 149.018 74.7526 149.711 74.7526C150.45 74.7526 151.024 74.9759 151.432 75.4225C151.84 75.8614 152.044 76.4697 152.044 77.2474V79.7884C152.044 79.927 152.075 80.0232 152.137 80.0771C152.198 80.131 152.291 80.158 152.414 80.158H152.807V81.0127C152.683 81.0281 152.514 81.0358 152.298 81.0358C151.96 81.0358 151.69 80.9665 151.49 80.8279C151.297 80.6893 151.17 80.4621 151.109 80.1464C150.947 80.4467 150.681 80.6893 150.312 80.8741C149.95 81.0589 149.549 81.1513 149.111 81.1513ZM149.203 80.2966C149.827 80.2966 150.292 80.1387 150.6 79.823C150.916 79.5073 151.074 79.0954 151.074 78.5872V78.0559L149.203 78.4255C148.787 78.5025 148.498 78.6218 148.337 78.7835C148.175 78.9375 148.094 79.1416 148.094 79.3957C148.094 79.6806 148.19 79.9039 148.383 80.0656C148.583 80.2196 148.856 80.2966 149.203 80.2966ZM153.957 81.0127V80.158H155.551V75.7459H153.957V74.8912H156.359L156.429 76.0693C156.637 75.2839 157.126 74.8912 157.896 74.8912H159.154V75.769H157.907C157.46 75.769 157.118 75.9037 156.879 76.1732C156.64 76.435 156.521 76.8162 156.521 77.3167V80.158H158.461V81.0127H153.957ZM162.95 81.1513C162.372 81.1513 161.872 81.0204 161.448 80.7586C161.033 80.4968 160.709 80.1272 160.478 79.6498C160.255 79.1647 160.143 78.5987 160.143 77.9519C160.143 77.3051 160.255 76.743 160.478 76.2656C160.709 75.7882 161.029 75.4186 161.437 75.1568C161.853 74.8873 162.342 74.7526 162.904 74.7526C163.435 74.7526 163.905 74.8796 164.313 75.1337C164.721 75.3801 165.04 75.742 165.271 76.2194C165.502 76.6968 165.618 77.2782 165.618 77.9635V78.2522H161.16C161.198 78.9067 161.371 79.3995 161.679 79.7306C161.995 80.0617 162.419 80.2273 162.95 80.2273C163.35 80.2273 163.678 80.1349 163.932 79.9501C164.193 79.7576 164.374 79.5073 164.475 79.1993L165.514 79.2802C165.352 79.8269 165.044 80.2773 164.59 80.6315C164.143 80.978 163.597 81.1513 162.95 81.1513ZM161.16 77.3975H164.555C164.509 76.8046 164.336 76.3696 164.036 76.0924C163.735 75.8152 163.358 75.6766 162.904 75.6766C162.434 75.6766 162.045 75.8229 161.737 76.1155C161.437 76.4004 161.244 76.8277 161.16 77.3975ZM166.884 81.0127V80.158H168.478V75.7459H166.884V74.8912H169.286L169.356 76.0693C169.564 75.2839 170.053 74.8912 170.823 74.8912H172.081V75.769H170.834C170.387 75.769 170.045 75.9037 169.806 76.1732C169.567 76.435 169.448 76.8162 169.448 77.3167V80.158H171.388V81.0127H166.884ZM181.474 76.6006L180.874 76.2079L181.647 75.0298H180.273V74.2906H181.647L180.874 73.1125L181.474 72.7198L182.236 73.9556L183.01 72.7198L183.611 73.1125L182.826 74.2906H184.2V75.0298H182.826L183.611 76.2079L183.01 76.6006L182.236 75.3763L181.474 76.6006ZM187.938 76.6006L187.337 76.2079L188.111 75.0298H186.736V74.2906H188.111L187.337 73.1125L187.938 72.7198L188.7 73.9556L189.474 72.7198L190.074 73.1125L189.289 74.2906H190.663V75.0298H189.289L190.074 76.2079L189.474 76.6006L188.7 75.3763L187.938 76.6006ZM194.401 76.6006L193.801 76.2079L194.574 75.0298H193.2V74.2906H194.574L193.801 73.1125L194.401 72.7198L195.163 73.9556L195.937 72.7198L196.538 73.1125L195.752 74.2906H197.127V75.0298H195.752L196.538 76.2079L195.937 76.6006L195.163 75.3763L194.401 76.6006ZM200.865 76.6006L200.264 76.2079L201.038 75.0298H199.663V74.2906H201.038L200.264 73.1125L200.865 72.7198L201.627 73.9556L202.401 72.7198L203.001 73.1125L202.216 74.2906H203.59V75.0298H202.216L203.001 76.2079L202.401 76.6006L201.627 75.3763L200.865 76.6006ZM40.0628 98.1975C39.4083 98.1975 38.8539 98.0242 38.3996 97.6777C37.9453 97.3312 37.5988 96.8384 37.3601 96.1993C37.1291 95.5602 37.0136 94.8018 37.0136 93.924C37.0136 93.0385 37.1291 92.2762 37.3601 91.6371C37.5988 90.998 37.9453 90.5052 38.3996 90.1587C38.8539 89.8045 39.4083 89.6274 40.0628 89.6274C40.7866 89.6274 41.4026 89.8661 41.9108 90.3435C42.419 90.8132 42.7578 91.4715 42.9272 92.3185L41.8646 92.3878C41.7337 91.7949 41.5066 91.3483 41.1832 91.048C40.8675 90.7477 40.494 90.5976 40.0628 90.5976C39.4083 90.5976 38.9078 90.8863 38.5613 91.4638C38.2225 92.0413 38.0531 92.8614 38.0531 93.924C38.0531 94.9789 38.2225 95.7951 38.5613 96.3726C38.9078 96.9424 39.4083 97.2273 40.0628 97.2273C40.5402 97.2273 40.9445 97.0617 41.2756 96.7306C41.6067 96.3995 41.83 95.9067 41.9455 95.2522L42.9965 95.31C42.8502 96.2109 42.5191 96.9193 42.0032 97.4352C41.4873 97.9434 40.8405 98.1975 40.0628 98.1975ZM46.5032 98.1513C45.9411 98.1513 45.4483 98.0204 45.0248 97.7586C44.609 97.4968 44.2856 97.1272 44.0546 96.6498C43.8236 96.1647 43.7081 95.5987 43.7081 94.9519C43.7081 94.2974 43.8236 93.7315 44.0546 93.2541C44.2856 92.7767 44.609 92.4071 45.0248 92.1453C45.4483 91.8835 45.9411 91.7526 46.5032 91.7526C47.0653 91.7526 47.5542 91.8835 47.97 92.1453C48.3935 92.4071 48.7208 92.7767 48.9518 93.2541C49.1828 93.7315 49.2983 94.2974 49.2983 94.9519C49.2983 95.5987 49.1828 96.1647 48.9518 96.6498C48.7208 97.1272 48.3935 97.4968 47.97 97.7586C47.5542 98.0204 47.0653 98.1513 46.5032 98.1513ZM46.5032 97.2273C47.0653 97.2273 47.5003 97.0271 47.8083 96.6267C48.124 96.2186 48.2819 95.6603 48.2819 94.9519C48.2819 94.2435 48.124 93.6891 47.8083 93.2887C47.5003 92.8806 47.0653 92.6766 46.5032 92.6766C45.9411 92.6766 45.5022 92.8806 45.1865 93.2887C44.8785 93.6891 44.7245 94.2435 44.7245 94.9519C44.7245 95.6603 44.8785 96.2186 45.1865 96.6267C45.5022 97.0271 45.9411 97.2273 46.5032 97.2273ZM50.4719 98.0127V91.8912H51.3612L51.3843 92.9884C51.546 92.5726 51.804 92.2646 52.1582 92.0644C52.5201 91.8565 52.9128 91.7526 53.3363 91.7526C53.806 91.7526 54.1948 91.8565 54.5028 92.0644C54.8185 92.2723 55.0572 92.5534 55.2189 92.9076C55.3806 93.2541 55.4615 93.6429 55.4615 94.0741V98.0127H54.4913V94.3513C54.4913 93.7815 54.3796 93.3503 54.1563 93.0577C53.933 92.7574 53.5904 92.6073 53.1284 92.6073C52.6587 92.6073 52.2583 92.7574 51.9272 93.0577C51.6038 93.3503 51.4421 93.7815 51.4421 94.3513V98.0127H50.4719ZM60.3311 98.0127C59.153 98.0127 58.5639 97.4506 58.5639 96.3264V92.7459H56.5427V91.8912H58.5639V90.459H59.5341V91.8912H61.9712V92.7459H59.5341V96.3264C59.5341 96.8808 59.7998 97.158 60.3311 97.158H61.9712V98.0127H60.3311ZM65.9976 98.1513C65.4201 98.1513 64.9196 98.0204 64.4961 97.7586C64.0803 97.4968 63.7569 97.1272 63.5259 96.6498C63.3026 96.1647 63.191 95.5987 63.191 94.9519C63.191 94.3051 63.3026 93.743 63.5259 93.2656C63.7569 92.7882 64.0765 92.4186 64.4846 92.1568C64.9004 91.8873 65.3893 91.7526 65.9514 91.7526C66.4827 91.7526 66.9524 91.8796 67.3605 92.1337C67.7686 92.3801 68.0882 92.742 68.3192 93.2194C68.5502 93.6968 68.6657 94.2782 68.6657 94.9635V95.2522H64.2074C64.2459 95.9067 64.4191 96.3995 64.7271 96.7306C65.0428 97.0617 65.4663 97.2273 65.9976 97.2273C66.398 97.2273 66.7253 97.1349 66.9794 96.9501C67.2412 96.7576 67.4221 96.5073 67.5222 96.1993L68.5617 96.2802C68.4 96.8269 68.092 97.2773 67.6377 97.6315C67.1911 97.978 66.6444 98.1513 65.9976 98.1513ZM64.2074 94.3975H67.6031C67.5569 93.8046 67.3836 93.3696 67.0833 93.0924C66.783 92.8152 66.4057 92.6766 65.9514 92.6766C65.4817 92.6766 65.0929 92.8229 64.7849 93.1155C64.4846 93.4004 64.2921 93.8277 64.2074 94.3975ZM69.8624 98.0127V91.8912H70.7517L70.7748 92.9884C70.9365 92.5726 71.1945 92.2646 71.5487 92.0644C71.9106 91.8565 72.3033 91.7526 72.7268 91.7526C73.1965 91.7526 73.5853 91.8565 73.8933 92.0644C74.209 92.2723 74.4477 92.5534 74.6094 92.9076C74.7711 93.2541 74.852 93.6429 74.852 94.0741V98.0127H73.8818V94.3513C73.8818 93.7815 73.7701 93.3503 73.5468 93.0577C73.3235 92.7574 72.9809 92.6073 72.5189 92.6073C72.0492 92.6073 71.6488 92.7574 71.3177 93.0577C70.9943 93.3503 70.8326 93.7815 70.8326 94.3513V98.0127H69.8624ZM79.7215 98.0127C78.5434 98.0127 77.9544 97.4506 77.9544 96.3264V92.7459H75.9331V91.8912H77.9544V90.459H78.9246V91.8912H81.3616V92.7459H78.9246V96.3264C78.9246 96.8808 79.1902 97.158 79.7215 97.158H81.3616V98.0127H79.7215ZM83.4361 95.1021V94.1896H87.1321V95.1021H83.4361ZM91.251 98.0127V90.7824H88.7446V89.8122H94.7506V90.7824H92.2443V98.0127H91.251ZM96.34 99.7452V98.8905H97.0446C97.2602 98.8905 97.418 98.8558 97.5181 98.7865C97.6259 98.7249 97.7068 98.621 97.7607 98.4747L97.9801 97.8972H97.6452L95.3698 91.8912H96.4324L98.292 96.9963L100.036 91.8912H101.099L98.6154 98.7865C98.4999 99.1176 98.3266 99.3602 98.0956 99.5142C97.8646 99.6682 97.5451 99.7452 97.137 99.7452H96.34ZM102.134 99.7452V91.8912H103.034L103.046 92.8729C103.231 92.511 103.485 92.2338 103.808 92.0413C104.139 91.8488 104.513 91.7526 104.929 91.7526C105.537 91.7526 106.034 91.9027 106.419 92.203C106.811 92.5033 107.1 92.896 107.285 93.3811C107.47 93.8662 107.562 94.3898 107.562 94.9519C107.562 95.514 107.47 96.0376 107.285 96.5227C107.1 97.0078 106.811 97.4005 106.419 97.7008C106.034 98.0011 105.537 98.1513 104.929 98.1513C104.528 98.1513 104.163 98.0666 103.831 97.8972C103.508 97.7278 103.265 97.4968 103.104 97.2042V99.7452H102.134ZM104.836 97.2273C105.368 97.2273 105.783 97.0271 106.084 96.6267C106.392 96.2263 106.546 95.668 106.546 94.9519C106.546 94.2358 106.392 93.6776 106.084 93.2772C105.783 92.8768 105.368 92.6766 104.836 92.6766C104.305 92.6766 103.881 92.8691 103.566 93.2541C103.258 93.6314 103.104 94.1973 103.104 94.9519C103.104 95.6988 103.258 96.2648 103.566 96.6498C103.874 97.0348 104.297 97.2273 104.836 97.2273ZM111.242 98.1513C110.665 98.1513 110.164 98.0204 109.741 97.7586C109.325 97.4968 109.001 97.1272 108.77 96.6498C108.547 96.1647 108.435 95.5987 108.435 94.9519C108.435 94.3051 108.547 93.743 108.77 93.2656C109.001 92.7882 109.321 92.4186 109.729 92.1568C110.145 91.8873 110.634 91.7526 111.196 91.7526C111.727 91.7526 112.197 91.8796 112.605 92.1337C113.013 92.3801 113.333 92.742 113.564 93.2194C113.795 93.6968 113.91 94.2782 113.91 94.9635V95.2522H109.452C109.49 95.9067 109.664 96.3995 109.972 96.7306C110.287 97.0617 110.711 97.2273 111.242 97.2273C111.642 97.2273 111.97 97.1349 112.224 96.9501C112.486 96.7576 112.667 96.5073 112.767 96.1993L113.806 96.2802C113.644 96.8269 113.336 97.2773 112.882 97.6315C112.436 97.978 111.889 98.1513 111.242 98.1513ZM109.452 94.3975H112.847C112.801 93.8046 112.628 93.3696 112.328 93.0924C112.027 92.8152 111.65 92.6766 111.196 92.6766C110.726 92.6766 110.337 92.8229 110.029 93.1155C109.729 93.4004 109.536 93.8277 109.452 94.3975ZM116.885 98.0127V96.6036H118.318V98.0127H116.885ZM116.885 93.5544V92.1453H118.318V93.5544H116.885ZM129.72 98.1513C129.335 98.1513 128.989 98.082 128.681 97.9434C128.373 97.8048 128.13 97.6123 127.953 97.3659C127.776 97.1118 127.687 96.8192 127.687 96.4881C127.687 95.9645 127.841 95.5602 128.149 95.2753C128.465 94.9827 128.958 94.771 129.628 94.6401L131.684 94.2243C131.684 93.7007 131.564 93.3118 131.325 93.0577C131.094 92.8036 130.76 92.6766 130.321 92.6766C129.897 92.6766 129.566 92.7728 129.327 92.9653C129.089 93.1501 128.923 93.4196 128.831 93.7738L127.803 93.693C127.918 93.1155 128.192 92.6496 128.623 92.2954C129.062 91.9335 129.628 91.7526 130.321 91.7526C131.06 91.7526 131.633 91.9759 132.042 92.4225C132.45 92.8614 132.654 93.4697 132.654 94.2474V96.7884C132.654 96.927 132.685 97.0232 132.746 97.0771C132.808 97.131 132.9 97.158 133.023 97.158H133.416V98.0127C133.293 98.0281 133.123 98.0358 132.908 98.0358C132.569 98.0358 132.3 97.9665 132.099 97.8279C131.907 97.6893 131.78 97.4621 131.718 97.1464C131.556 97.4467 131.291 97.6893 130.921 97.8741C130.559 98.0589 130.159 98.1513 129.72 98.1513ZM129.812 97.2966C130.436 97.2966 130.902 97.1387 131.21 96.823C131.526 96.5073 131.684 96.0954 131.684 95.5872V95.0559L129.812 95.4255C129.397 95.5025 129.108 95.6218 128.946 95.7835C128.784 95.9375 128.704 96.1416 128.704 96.3957C128.704 96.6806 128.8 96.9039 128.992 97.0656C129.193 97.2196 129.466 97.2966 129.812 97.2966ZM134.451 99.7452V91.8912H135.352L135.363 92.8729C135.548 92.511 135.802 92.2338 136.126 92.0413C136.457 91.8488 136.83 91.7526 137.246 91.7526C137.854 91.7526 138.351 91.9027 138.736 92.203C139.129 92.5033 139.418 92.896 139.602 93.3811C139.787 93.8662 139.88 94.3898 139.88 94.9519C139.88 95.514 139.787 96.0376 139.602 96.5227C139.418 97.0078 139.129 97.4005 138.736 97.7008C138.351 98.0011 137.854 98.1513 137.246 98.1513C136.846 98.1513 136.48 98.0666 136.149 97.8972C135.825 97.7278 135.583 97.4968 135.421 97.2042V99.7452H134.451ZM137.154 97.2273C137.685 97.2273 138.101 97.0271 138.401 96.6267C138.709 96.2263 138.863 95.668 138.863 94.9519C138.863 94.2358 138.709 93.6776 138.401 93.2772C138.101 92.8768 137.685 92.6766 137.154 92.6766C136.622 92.6766 136.199 92.8691 135.883 93.2541C135.575 93.6314 135.421 94.1973 135.421 94.9519C135.421 95.6988 135.575 96.2648 135.883 96.6498C136.191 97.0348 136.615 97.2273 137.154 97.2273ZM140.915 99.7452V91.8912H141.815L141.827 92.8729C142.012 92.511 142.266 92.2338 142.589 92.0413C142.92 91.8488 143.294 91.7526 143.71 91.7526C144.318 91.7526 144.815 91.9027 145.2 92.203C145.592 92.5033 145.881 92.896 146.066 93.3811C146.251 93.8662 146.343 94.3898 146.343 94.9519C146.343 95.514 146.251 96.0376 146.066 96.5227C145.881 97.0078 145.592 97.4005 145.2 97.7008C144.815 98.0011 144.318 98.1513 143.71 98.1513C143.309 98.1513 142.943 98.0666 142.612 97.8972C142.289 97.7278 142.046 97.4968 141.885 97.2042V99.7452H140.915ZM143.617 97.2273C144.149 97.2273 144.564 97.0271 144.865 96.6267C145.173 96.2263 145.327 95.668 145.327 94.9519C145.327 94.2358 145.173 93.6776 144.865 93.2772C144.564 92.8768 144.149 92.6766 143.617 92.6766C143.086 92.6766 142.662 92.8691 142.347 93.2541C142.039 93.6314 141.885 94.1973 141.885 94.9519C141.885 95.6988 142.039 96.2648 142.347 96.6498C142.655 97.0348 143.078 97.2273 143.617 97.2273ZM147.147 98.0127V97.158H149.607V91.4523C149.607 91.2059 149.538 91.0134 149.399 90.8748C149.261 90.7362 149.068 90.6669 148.822 90.6669H147.378V89.8122H148.868C150.008 89.8122 150.577 90.382 150.577 91.5216V97.158H152.691V98.0127H147.147ZM153.841 98.0127V97.158H156.302V92.7459H153.957V91.8912H157.272V97.158H159.385V98.0127H153.841ZM156.209 90.9325V89.8006H157.226V90.9325H156.209ZM163.008 98.1513C162.438 98.1513 161.941 98.0204 161.518 97.7586C161.094 97.4968 160.767 97.1272 160.536 96.6498C160.305 96.1647 160.189 95.5987 160.189 94.9519C160.189 94.3051 160.305 93.743 160.536 93.2656C160.767 92.7882 161.094 92.4186 161.518 92.1568C161.941 91.8873 162.438 91.7526 163.008 91.7526C163.693 91.7526 164.259 91.9374 164.706 92.307C165.16 92.6689 165.449 93.1925 165.572 93.8778L164.555 93.9471C164.463 93.539 164.278 93.2271 164.001 93.0115C163.731 92.7882 163.4 92.6766 163.008 92.6766C162.446 92.6766 162.003 92.8806 161.679 93.2887C161.364 93.6891 161.206 94.2435 161.206 94.9519C161.206 95.6603 161.364 96.2186 161.679 96.6267C162.003 97.0271 162.446 97.2273 163.008 97.2273C163.4 97.2273 163.739 97.1118 164.024 96.8808C164.317 96.6498 164.509 96.3033 164.602 95.8413L165.618 95.9106C165.495 96.5882 165.198 97.131 164.729 97.5391C164.267 97.9472 163.693 98.1513 163.008 98.1513ZM168.501 98.1513C168.116 98.1513 167.769 98.082 167.461 97.9434C167.153 97.8048 166.911 97.6123 166.734 97.3659C166.557 97.1118 166.468 96.8192 166.468 96.4881C166.468 95.9645 166.622 95.5602 166.93 95.2753C167.246 94.9827 167.739 94.771 168.409 94.6401L170.464 94.2243C170.464 93.7007 170.345 93.3118 170.106 93.0577C169.875 92.8036 169.54 92.6766 169.102 92.6766C168.678 92.6766 168.347 92.7728 168.108 92.9653C167.87 93.1501 167.704 93.4196 167.612 93.7738L166.584 93.693C166.699 93.1155 166.973 92.6496 167.404 92.2954C167.843 91.9335 168.409 91.7526 169.102 91.7526C169.841 91.7526 170.414 91.9759 170.823 92.4225C171.231 92.8614 171.435 93.4697 171.435 94.2474V96.7884C171.435 96.927 171.465 97.0232 171.527 97.0771C171.589 97.131 171.681 97.158 171.804 97.158H172.197V98.0127C172.074 98.0281 171.904 98.0358 171.689 98.0358C171.35 98.0358 171.08 97.9665 170.88 97.8279C170.688 97.6893 170.561 97.4621 170.499 97.1464C170.337 97.4467 170.072 97.6893 169.702 97.8741C169.34 98.0589 168.94 98.1513 168.501 98.1513ZM168.593 97.2966C169.217 97.2966 169.683 97.1387 169.991 96.823C170.307 96.5073 170.464 96.0954 170.464 95.5872V95.0559L168.593 95.4255C168.178 95.5025 167.889 95.6218 167.727 95.7835C167.565 95.9375 167.485 96.1416 167.485 96.3957C167.485 96.6806 167.581 96.9039 167.773 97.0656C167.974 97.2196 168.247 97.2966 168.593 97.2966ZM176.674 98.0127C175.496 98.0127 174.907 97.4506 174.907 96.3264V92.7459H172.885V91.8912H174.907V90.459H175.877V91.8912H178.314V92.7459H175.877V96.3264C175.877 96.8808 176.143 97.158 176.674 97.158H178.314V98.0127H176.674ZM179.695 98.0127V97.158H182.156V92.7459H179.811V91.8912H183.126V97.158H185.239V98.0127H179.695ZM182.063 90.9325V89.8006H183.08V90.9325H182.063ZM188.7 98.1513C188.138 98.1513 187.645 98.0204 187.222 97.7586C186.806 97.4968 186.482 97.1272 186.251 96.6498C186.02 96.1647 185.905 95.5987 185.905 94.9519C185.905 94.2974 186.02 93.7315 186.251 93.2541C186.482 92.7767 186.806 92.4071 187.222 92.1453C187.645 91.8835 188.138 91.7526 188.7 91.7526C189.262 91.7526 189.751 91.8835 190.167 92.1453C190.59 92.4071 190.918 92.7767 191.149 93.2541C191.38 93.7315 191.495 94.2974 191.495 94.9519C191.495 95.5987 191.38 96.1647 191.149 96.6498C190.918 97.1272 190.59 97.4968 190.167 97.7586C189.751 98.0204 189.262 98.1513 188.7 98.1513ZM188.7 97.2273C189.262 97.2273 189.697 97.0271 190.005 96.6267C190.321 96.2186 190.479 95.6603 190.479 94.9519C190.479 94.2435 190.321 93.6891 190.005 93.2887C189.697 92.8806 189.262 92.6766 188.7 92.6766C188.138 92.6766 187.699 92.8806 187.383 93.2887C187.075 93.6891 186.921 94.2435 186.921 94.9519C186.921 95.6603 187.075 96.2186 187.383 96.6267C187.699 97.0271 188.138 97.2273 188.7 97.2273ZM192.669 98.0127V91.8912H193.558L193.581 92.9884C193.743 92.5726 194.001 92.2646 194.355 92.0644C194.717 91.8565 195.11 91.7526 195.533 91.7526C196.003 91.7526 196.392 91.8565 196.7 92.0644C197.015 92.2723 197.254 92.5534 197.416 92.9076C197.577 93.2541 197.658 93.6429 197.658 94.0741V98.0127H196.688V94.3513C196.688 93.7815 196.576 93.3503 196.353 93.0577C196.13 92.7574 195.787 92.6073 195.325 92.6073C194.855 92.6073 194.455 92.7574 194.124 93.0577C193.801 93.3503 193.639 93.7815 193.639 94.3513V98.0127H192.669ZM199.409 99.2832L202.921 89.3502H203.845L200.333 99.2832H199.409ZM205.896 99.7452V98.8905H207.836C208.137 98.8905 208.36 98.825 208.506 98.6941C208.66 98.5632 208.737 98.313 208.737 97.9434V92.7459H206.011V91.8912H209.707V98.0127C209.707 98.5748 209.569 99.0021 209.292 99.2947C209.014 99.595 208.568 99.7452 207.952 99.7452H205.896ZM208.679 90.9325V89.8006H209.696V90.9325H208.679ZM214.669 98.1513C214.138 98.1513 213.68 98.0589 213.295 97.8741C212.91 97.6893 212.606 97.4429 212.382 97.1349C212.167 96.8192 212.044 96.4688 212.013 96.0838L213.029 96.0145C213.091 96.3918 213.256 96.6883 213.526 96.9039C213.803 97.1195 214.184 97.2273 214.669 97.2273C215.124 97.2273 215.474 97.1618 215.72 97.0309C215.975 96.9 216.102 96.696 216.102 96.4188C216.102 96.2417 216.059 96.0954 215.975 95.9799C215.89 95.8644 215.732 95.7681 215.501 95.6911C215.27 95.6064 214.931 95.5256 214.485 95.4486C213.892 95.3408 213.426 95.2099 213.087 95.0559C212.756 94.8942 212.521 94.694 212.382 94.4553C212.244 94.2166 212.175 93.9317 212.175 93.6006C212.175 93.0693 212.375 92.6304 212.775 92.2839C213.176 91.9297 213.749 91.7526 214.496 91.7526C215.004 91.7526 215.428 91.845 215.767 92.0298C216.113 92.2069 216.386 92.4456 216.587 92.7459C216.787 93.0385 216.918 93.3619 216.979 93.7161L215.963 93.7854C215.894 93.462 215.732 93.1963 215.478 92.9884C215.231 92.7805 214.9 92.6766 214.485 92.6766C214.038 92.6766 213.707 92.7651 213.491 92.9422C213.276 93.1193 213.168 93.3388 213.168 93.6006C213.168 93.9086 213.283 94.128 213.514 94.2589C213.745 94.3898 214.138 94.5015 214.692 94.5939C215.324 94.694 215.813 94.8249 216.159 94.9866C216.506 95.1406 216.748 95.3331 216.887 95.5641C217.026 95.7951 217.095 96.08 217.095 96.4188C217.095 96.7807 216.987 97.0925 216.771 97.3543C216.564 97.6084 216.275 97.8048 215.905 97.9434C215.543 98.082 215.131 98.1513 214.669 98.1513ZM221.017 98.1513C220.455 98.1513 219.962 98.0204 219.539 97.7586C219.123 97.4968 218.8 97.1272 218.569 96.6498C218.338 96.1647 218.222 95.5987 218.222 94.9519C218.222 94.2974 218.338 93.7315 218.569 93.2541C218.8 92.7767 219.123 92.4071 219.539 92.1453C219.962 91.8835 220.455 91.7526 221.017 91.7526C221.579 91.7526 222.068 91.8835 222.484 92.1453C222.908 92.4071 223.235 92.7767 223.466 93.2541C223.697 93.7315 223.812 94.2974 223.812 94.9519C223.812 95.5987 223.697 96.1647 223.466 96.6498C223.235 97.1272 222.908 97.4968 222.484 97.7586C222.068 98.0204 221.579 98.1513 221.017 98.1513ZM221.017 97.2273C221.579 97.2273 222.015 97.0271 222.323 96.6267C222.638 96.2186 222.796 95.6603 222.796 94.9519C222.796 94.2435 222.638 93.6891 222.323 93.2887C222.015 92.8806 221.579 92.6766 221.017 92.6766C220.455 92.6766 220.016 92.8806 219.701 93.2887C219.393 93.6891 219.239 94.2435 219.239 94.9519C219.239 95.6603 219.393 96.2186 219.701 96.6267C220.016 97.0271 220.455 97.2273 221.017 97.2273ZM224.986 98.0127V91.8912H225.875L225.899 92.9884C226.06 92.5726 226.318 92.2646 226.672 92.0644C227.034 91.8565 227.427 91.7526 227.85 91.7526C228.32 91.7526 228.709 91.8565 229.017 92.0644C229.333 92.2723 229.571 92.5534 229.733 92.9076C229.895 93.2541 229.976 93.6429 229.976 94.0741V98.0127H229.005V94.3513C229.005 93.7815 228.894 93.3503 228.671 93.0577C228.447 92.7574 228.105 92.6073 227.643 92.6073C227.173 92.6073 226.772 92.7574 226.441 93.0577C226.118 93.3503 225.956 93.7815 225.956 94.3513V98.0127H224.986ZM47.7621 116.341C47.1538 116.341 46.6726 116.156 46.3184 115.787C45.9719 115.417 45.7986 114.94 45.7986 114.354V113.396C45.7986 112.895 45.6947 112.51 45.4868 112.241C45.2866 111.963 44.994 111.825 44.609 111.825V110.866C44.994 110.866 45.2866 110.728 45.4868 110.45C45.6947 110.173 45.7986 109.788 45.7986 109.295V108.337C45.7986 107.752 45.9719 107.274 46.3184 106.905C46.6726 106.535 47.1538 106.35 47.7621 106.35H48.3974V107.251C47.7891 107.228 47.3579 107.297 47.1038 107.459C46.8497 107.621 46.7226 107.906 46.7226 108.314V109.376C46.7226 109.954 46.5956 110.404 46.3415 110.728C46.0874 111.043 45.7832 111.244 45.429 111.328V111.34C45.7909 111.417 46.0951 111.621 46.3415 111.952C46.5956 112.283 46.7226 112.737 46.7226 113.315V114.377C46.7226 114.778 46.8497 115.059 47.1038 115.221C47.3579 115.382 47.7891 115.455 48.3974 115.44V116.341H47.7621ZM59.9499 127.589L59.9037 123.812H60.9317V124.736L60.6545 127.589H59.9499ZM58.2059 127.589L57.9287 124.736V123.812H58.9566L58.9104 127.589H58.2059ZM63.3527 133.745V125.891H64.2536L64.2651 126.873C64.4499 126.511 64.704 126.234 65.0274 126.041C65.3585 125.849 65.732 125.753 66.1478 125.753C66.7561 125.753 67.2527 125.903 67.6377 126.203C68.0304 126.503 68.3192 126.896 68.504 127.381C68.6888 127.866 68.7812 128.39 68.7812 128.952C68.7812 129.514 68.6888 130.038 68.504 130.523C68.3192 131.008 68.0304 131.401 67.6377 131.701C67.2527 132.001 66.7561 132.151 66.1478 132.151C65.7474 132.151 65.3816 132.067 65.0505 131.897C64.7271 131.728 64.4846 131.497 64.3229 131.204V133.745H63.3527ZM66.0554 131.227C66.5867 131.227 67.0025 131.027 67.3028 130.627C67.6108 130.226 67.7648 129.668 67.7648 128.952C67.7648 128.236 67.6108 127.678 67.3028 127.277C67.0025 126.877 66.5867 126.677 66.0554 126.677C65.5241 126.677 65.1006 126.869 64.7849 127.254C64.4769 127.631 64.3229 128.197 64.3229 128.952C64.3229 129.699 64.4769 130.265 64.7849 130.65C65.0929 131.035 65.5164 131.227 66.0554 131.227ZM71.5487 132.151C71.1637 132.151 70.8172 132.082 70.5092 131.943C70.2012 131.805 69.9586 131.612 69.7815 131.366C69.6044 131.112 69.5159 130.819 69.5159 130.488C69.5159 129.964 69.6699 129.56 69.9779 129.275C70.2936 128.983 70.7864 128.771 71.4563 128.64L73.5122 128.224C73.5122 127.701 73.3928 127.312 73.1541 127.058C72.9231 126.804 72.5882 126.677 72.1493 126.677C71.7258 126.677 71.3947 126.773 71.156 126.965C70.9173 127.15 70.7517 127.42 70.6593 127.774L69.6314 127.693C69.7469 127.115 70.0202 126.65 70.4514 126.295C70.8903 125.934 71.4563 125.753 72.1493 125.753C72.8885 125.753 73.4621 125.976 73.8702 126.422C74.2783 126.861 74.4824 127.47 74.4824 128.247V130.788C74.4824 130.927 74.5132 131.023 74.5748 131.077C74.6364 131.131 74.7288 131.158 74.852 131.158H75.2447V132.013C75.1215 132.028 74.9521 132.036 74.7365 132.036C74.3977 132.036 74.1282 131.966 73.928 131.828C73.7355 131.689 73.6084 131.462 73.5468 131.146C73.3851 131.447 73.1195 131.689 72.7499 131.874C72.388 132.059 71.9876 132.151 71.5487 132.151ZM71.6411 131.297C72.2648 131.297 72.7306 131.139 73.0386 130.823C73.3543 130.507 73.5122 130.095 73.5122 129.587V129.056L71.6411 129.425C71.2253 129.502 70.9365 129.622 70.7748 129.784C70.6131 129.938 70.5323 130.142 70.5323 130.396C70.5323 130.681 70.6285 130.904 70.821 131.066C71.0212 131.22 71.2946 131.297 71.6411 131.297ZM78.786 133.884C78.1315 133.884 77.5732 133.722 77.1112 133.399C76.6492 133.075 76.3528 132.644 76.2219 132.105L77.2383 132.036C77.3307 132.321 77.4924 132.544 77.7234 132.706C77.9621 132.875 78.3163 132.96 78.786 132.96C79.3404 132.96 79.7639 132.848 80.0565 132.625C80.3568 132.402 80.5069 132.067 80.5069 131.62V130.627C80.3606 130.95 80.1258 131.208 79.8024 131.401C79.479 131.593 79.1171 131.689 78.7167 131.689C78.2008 131.689 77.7388 131.562 77.3307 131.308C76.9303 131.054 76.6146 130.704 76.3836 130.257C76.1603 129.81 76.0486 129.298 76.0486 128.721C76.0486 128.136 76.1603 127.624 76.3836 127.185C76.6069 126.738 76.9149 126.388 77.3076 126.134C77.708 125.88 78.1623 125.753 78.6705 125.753C79.1017 125.753 79.4867 125.853 79.8255 126.053C80.172 126.253 80.4145 126.523 80.5531 126.861V125.891H81.4771V131.597C81.4771 132.313 81.2384 132.871 80.761 133.272C80.2913 133.68 79.633 133.884 78.786 133.884ZM78.7629 130.765C79.2865 130.765 79.7061 130.584 80.0218 130.222C80.3375 129.853 80.4992 129.352 80.5069 128.721C80.5223 128.09 80.3683 127.593 80.0449 127.231C79.7215 126.861 79.2942 126.677 78.7629 126.677C78.2239 126.677 77.8042 126.861 77.5039 127.231C77.2113 127.593 77.065 128.09 77.065 128.721C77.065 129.352 77.2152 129.853 77.5155 130.222C77.8235 130.584 78.2393 130.765 78.7629 130.765ZM85.3881 132.151C84.8106 132.151 84.3101 132.02 83.8866 131.759C83.4708 131.497 83.1474 131.127 82.9164 130.65C82.6931 130.165 82.5814 129.599 82.5814 128.952C82.5814 128.305 82.6931 127.743 82.9164 127.266C83.1474 126.788 83.4669 126.419 83.875 126.157C84.2908 125.887 84.7798 125.753 85.3419 125.753C85.8732 125.753 86.3429 125.88 86.751 126.134C87.1591 126.38 87.4786 126.742 87.7096 127.219C87.9406 127.697 88.0561 128.278 88.0561 128.963V129.252H83.5978C83.6363 129.907 83.8096 130.4 84.1176 130.731C84.4333 131.062 84.8568 131.227 85.3881 131.227C85.7885 131.227 86.1157 131.135 86.3698 130.95C86.6316 130.758 86.8126 130.507 86.9127 130.199L87.9522 130.28C87.7905 130.827 87.4825 131.277 87.0282 131.632C86.5816 131.978 86.0349 132.151 85.3881 132.151ZM83.5978 128.398H86.9935C86.9473 127.805 86.7741 127.37 86.4738 127.092C86.1735 126.815 85.7962 126.677 85.3419 126.677C84.8722 126.677 84.4833 126.823 84.1753 127.115C83.875 127.4 83.6825 127.828 83.5978 128.398ZM92.2674 127.589L92.2212 123.812H93.2491V124.736L92.9719 127.589H92.2674ZM90.5233 127.589L90.2461 124.736V123.812H91.2741L91.2279 127.589H90.5233ZM97.495 132.013V130.604H98.9272V132.013H97.495ZM97.495 127.554V126.145H98.9272V127.554H97.495ZM108.366 132.013V131.042H110.953V125.937H108.805V125.083H109.914C110.353 125.083 110.665 124.986 110.849 124.794C111.042 124.601 111.138 124.274 111.138 123.812H111.947V131.042H113.91V132.013H108.366ZM116.989 133.814L117.532 132.013H116.909V130.604H118.295V131.851L117.567 133.814H116.989ZM59.9499 144.589L59.9037 140.812H60.9317V141.736L60.6545 144.589H59.9499ZM58.2059 144.589L57.9287 141.736V140.812H58.9566L58.9104 144.589H58.2059ZM63.1217 149.013V148.158H65.5818V142.452C65.5818 142.206 65.5125 142.013 65.3739 141.875C65.2353 141.736 65.0428 141.667 64.7964 141.667H63.3527V140.812H64.8426C65.9822 140.812 66.552 141.382 66.552 142.522V148.158H68.6657V149.013H63.1217ZM69.8162 149.013V148.158H72.2763V143.746H69.9317V142.891H73.2465V148.158H75.3602V149.013H69.8162ZM72.1839 141.933V140.801H73.2003V141.933H72.1839ZM75.8176 149.013V142.891H76.707L76.7301 143.792C76.8379 143.469 76.9919 143.215 77.1921 143.03C77.4 142.845 77.6502 142.753 77.9428 142.753C78.5665 142.753 78.9515 143.157 79.0978 143.965C79.1979 143.588 79.3596 143.292 79.5829 143.076C79.8139 142.86 80.0911 142.753 80.4145 142.753C80.9073 142.753 81.2654 142.922 81.4887 143.261C81.712 143.6 81.8236 144.162 81.8236 144.947V149.013H80.8534V145.086C80.8534 144.539 80.7957 144.158 80.6802 143.942C80.5647 143.719 80.3837 143.607 80.1373 143.607C79.8986 143.607 79.6984 143.727 79.5367 143.965C79.3827 144.204 79.3057 144.585 79.3057 145.109V149.013H78.3355V145.086C78.3355 144.562 78.2778 144.185 78.1623 143.954C78.0545 143.723 77.8735 143.607 77.6194 143.607C77.3807 143.607 77.1805 143.727 77.0188 143.965C76.8648 144.204 76.7878 144.585 76.7878 145.109V149.013H75.8176ZM82.7431 149.013V148.158H85.2033V143.746H82.8586V142.891H86.1735V148.158H88.2871V149.013H82.7431ZM85.1109 141.933V140.801H86.1273V141.933H85.1109ZM92.6485 149.013C91.4704 149.013 90.8814 148.451 90.8814 147.326V143.746H88.8601V142.891H90.8814V141.459H91.8516V142.891H94.2886V143.746H91.8516V147.326C91.8516 147.881 92.1172 148.158 92.6485 148.158H94.2886V149.013H92.6485ZM98.7309 144.589L98.6847 140.812H99.7126V141.736L99.4354 144.589H98.7309ZM96.9868 144.589L96.7096 141.736V140.812H97.7376L97.6914 144.589H96.9868ZM103.958 149.013V147.604H105.391V149.013H103.958ZM103.958 144.554V143.145H105.391V144.554H103.958ZM114.714 149.013C114.714 148.435 114.803 147.915 114.98 147.453C115.165 146.984 115.484 146.537 115.938 146.114C116.4 145.69 117.039 145.263 117.856 144.832C118.233 144.631 118.537 144.447 118.768 144.277C118.999 144.108 119.169 143.927 119.276 143.734C119.384 143.542 119.438 143.307 119.438 143.03C119.438 142.606 119.299 142.264 119.022 142.002C118.753 141.732 118.345 141.598 117.798 141.598C117.22 141.598 116.762 141.748 116.423 142.048C116.092 142.348 115.884 142.776 115.8 143.33L114.76 143.261C114.853 142.46 115.161 141.821 115.684 141.343C116.208 140.866 116.912 140.627 117.798 140.627C118.645 140.627 119.303 140.847 119.773 141.286C120.243 141.725 120.478 142.298 120.478 143.007C120.478 143.422 120.408 143.784 120.27 144.092C120.131 144.393 119.896 144.674 119.565 144.936C119.242 145.197 118.795 145.478 118.225 145.779C117.486 146.171 116.924 146.568 116.539 146.968C116.162 147.369 115.961 147.727 115.938 148.042H120.489V149.013H114.714ZM124.065 149.197C123.472 149.197 122.956 149.024 122.517 148.678C122.086 148.331 121.755 147.838 121.524 147.199C121.293 146.56 121.178 145.802 121.178 144.924C121.178 144.038 121.293 143.276 121.524 142.637C121.755 141.998 122.086 141.505 122.517 141.159C122.956 140.804 123.472 140.627 124.065 140.627C124.666 140.627 125.182 140.804 125.613 141.159C126.044 141.505 126.375 141.998 126.606 142.637C126.837 143.276 126.953 144.038 126.953 144.924C126.953 145.802 126.837 146.56 126.606 147.199C126.375 147.838 126.044 148.331 125.613 148.678C125.182 149.024 124.666 149.197 124.065 149.197ZM122.217 144.924C122.217 145.694 122.313 146.348 122.506 146.887L125.139 142.094C124.839 141.763 124.481 141.598 124.065 141.598C123.495 141.598 123.045 141.898 122.714 142.498C122.383 143.091 122.217 143.9 122.217 144.924ZM124.065 148.227C124.635 148.227 125.085 147.931 125.416 147.338C125.748 146.737 125.913 145.933 125.913 144.924C125.913 144.146 125.817 143.488 125.624 142.949L122.991 147.731C123.291 148.062 123.649 148.227 124.065 148.227ZM129.916 150.814L130.459 149.013H129.836V147.604H131.222V148.851L130.494 150.814H129.916ZM59.9499 161.589L59.9037 157.812H60.9317V158.736L60.6545 161.589H59.9499ZM58.2059 161.589L57.9287 158.736V157.812H58.9566L58.9104 161.589H58.2059ZM64.8773 166.013V160.746H63.2372V159.891H64.8773V159.498C64.8773 158.952 65.0159 158.536 65.2931 158.251C65.578 157.958 66.0092 157.812 66.5867 157.812H68.5502V158.667H66.5867C66.348 158.667 66.1632 158.744 66.0323 158.898C65.9091 159.044 65.8475 159.244 65.8475 159.498V159.891H68.4347V160.746H65.8475V166.013H64.8773ZM69.8162 166.013V165.158H72.2763V160.746H69.9317V159.891H73.2465V165.158H75.3602V166.013H69.8162ZM72.1839 158.933V157.801H73.2003V158.933H72.1839ZM76.0486 166.013V165.158H78.5088V159.452C78.5088 159.206 78.4395 159.013 78.3009 158.875C78.1623 158.736 77.9698 158.667 77.7234 158.667H76.2796V157.812H77.7696C78.9092 157.812 79.479 158.382 79.479 159.522V165.158H81.5926V166.013H76.0486ZM86.185 166.013C85.0069 166.013 84.4179 165.451 84.4179 164.326V160.746H82.3966V159.891H84.4179V158.459H85.3881V159.891H87.8251V160.746H85.3881V164.326C85.3881 164.881 85.6537 165.158 86.185 165.158H87.8251V166.013H86.185ZM91.8516 166.151C91.2741 166.151 90.7736 166.02 90.3501 165.759C89.9343 165.497 89.6109 165.127 89.3799 164.65C89.1566 164.165 89.0449 163.599 89.0449 162.952C89.0449 162.305 89.1566 161.743 89.3799 161.266C89.6109 160.788 89.9304 160.419 90.3385 160.157C90.7543 159.887 91.2433 159.753 91.8054 159.753C92.3367 159.753 92.8064 159.88 93.2145 160.134C93.6226 160.38 93.9421 160.742 94.1731 161.219C94.4041 161.697 94.5196 162.278 94.5196 162.963V163.252H90.0613C90.0998 163.907 90.2731 164.4 90.5811 164.731C90.8968 165.062 91.3203 165.227 91.8516 165.227C92.252 165.227 92.5792 165.135 92.8333 164.95C93.0951 164.758 93.2761 164.507 93.3762 164.199L94.4157 164.28C94.254 164.827 93.946 165.277 93.4917 165.632C93.0451 165.978 92.4984 166.151 91.8516 166.151ZM90.0613 162.398H93.457C93.4108 161.805 93.2376 161.37 92.9373 161.092C92.637 160.815 92.2597 160.677 91.8054 160.677C91.3357 160.677 90.9468 160.823 90.6388 161.115C90.3385 161.4 90.146 161.828 90.0613 162.398ZM95.7856 166.013V165.158H97.3795V160.746H95.7856V159.891H98.188L98.2573 161.069C98.4652 160.284 98.9542 159.891 99.7242 159.891H100.983V160.769H99.7357C99.2891 160.769 98.9465 160.904 98.7078 161.173C98.4691 161.435 98.3497 161.816 98.3497 162.317V165.158H100.29V166.013H95.7856ZM105.194 161.589L105.148 157.812H106.176V158.736L105.899 161.589H105.194ZM103.45 161.589L103.173 158.736V157.812H104.201L104.155 161.589H103.45ZM110.422 166.013V164.604H111.854V166.013H110.422ZM110.422 161.554V160.145H111.854V161.554H110.422ZM125.324 167.341C124.716 167.341 124.234 167.156 123.88 166.787C123.534 166.417 123.361 165.94 123.361 165.354V164.396C123.361 163.895 123.257 163.51 123.049 163.241C122.848 162.963 122.556 162.825 122.171 162.825V161.866C122.556 161.866 122.848 161.728 123.049 161.45C123.257 161.173 123.361 160.788 123.361 160.295V159.337C123.361 158.752 123.534 158.274 123.88 157.905C124.234 157.535 124.716 157.35 125.324 157.35H125.959V158.251C125.351 158.228 124.92 158.297 124.666 158.459C124.412 158.621 124.285 158.906 124.285 159.314V160.376C124.285 160.954 124.157 161.404 123.903 161.728C123.649 162.043 123.345 162.244 122.991 162.328V162.34C123.353 162.417 123.657 162.621 123.903 162.952C124.157 163.283 124.285 163.737 124.285 164.315V165.377C124.285 165.778 124.412 166.059 124.666 166.221C124.92 166.382 125.351 166.455 125.959 166.44V167.341H125.324ZM79.3404 178.589L79.2942 174.812H80.3221V175.736L80.0449 178.589H79.3404ZM77.5963 178.589L77.3191 175.736V174.812H78.3471L78.3009 178.589H77.5963ZM85.3996 183.151C84.8683 183.151 84.4102 183.059 84.0252 182.874C83.6402 182.689 83.336 182.443 83.1127 182.135C82.8971 181.819 82.7739 181.469 82.7431 181.084L83.7595 181.015C83.8211 181.392 83.9867 181.688 84.2562 181.904C84.5334 182.119 84.9145 182.227 85.3996 182.227C85.8539 182.227 86.2043 182.162 86.4507 182.031C86.7048 181.9 86.8318 181.696 86.8318 181.419C86.8318 181.242 86.7895 181.095 86.7048 180.98C86.6201 180.864 86.4622 180.768 86.2312 180.691C86.0002 180.606 85.6614 180.526 85.2148 180.449C84.6219 180.341 84.1561 180.21 83.8173 180.056C83.4862 179.894 83.2513 179.694 83.1127 179.455C82.9741 179.217 82.9048 178.932 82.9048 178.601C82.9048 178.069 83.105 177.63 83.5054 177.284C83.9058 176.93 84.4795 176.753 85.2264 176.753C85.7346 176.753 86.1581 176.845 86.4969 177.03C86.8434 177.207 87.1167 177.446 87.3169 177.746C87.5171 178.038 87.648 178.362 87.7096 178.716L86.6932 178.785C86.6239 178.462 86.4622 178.196 86.2081 177.988C85.9617 177.781 85.6306 177.677 85.2148 177.677C84.7682 177.677 84.4371 177.765 84.2215 177.942C84.0059 178.119 83.8981 178.339 83.8981 178.601C83.8981 178.909 84.0136 179.128 84.2446 179.259C84.4756 179.39 84.8683 179.501 85.4227 179.594C86.0541 179.694 86.5431 179.825 86.8896 179.987C87.2361 180.141 87.4786 180.333 87.6172 180.564C87.7558 180.795 87.8251 181.08 87.8251 181.419C87.8251 181.781 87.7173 182.093 87.5017 182.354C87.2938 182.608 87.0051 182.805 86.6355 182.943C86.2736 183.082 85.8616 183.151 85.3996 183.151ZM92.6485 183.013C91.4704 183.013 90.8814 182.451 90.8814 181.326V177.746H88.8601V176.891H90.8814V175.459H91.8516V176.891H94.2886V177.746H91.8516V181.326C91.8516 181.881 92.1172 182.158 92.6485 182.158H94.2886V183.013H92.6485ZM97.4026 183.151C97.0176 183.151 96.6711 183.082 96.3631 182.943C96.0551 182.805 95.8126 182.612 95.6355 182.366C95.4584 182.112 95.3698 181.819 95.3698 181.488C95.3698 180.964 95.5238 180.56 95.8318 180.275C96.1475 179.983 96.6403 179.771 97.3102 179.64L99.3661 179.224C99.3661 178.701 99.2468 178.312 99.0081 178.058C98.7771 177.804 98.4421 177.677 98.0032 177.677C97.5797 177.677 97.2486 177.773 97.0099 177.965C96.7712 178.15 96.6057 178.42 96.5133 178.774L95.4853 178.693C95.6008 178.115 95.8742 177.65 96.3054 177.295C96.7443 176.934 97.3102 176.753 98.0032 176.753C98.7424 176.753 99.3161 176.976 99.7242 177.422C100.132 177.861 100.336 178.47 100.336 179.247V181.788C100.336 181.927 100.367 182.023 100.429 182.077C100.49 182.131 100.583 182.158 100.706 182.158H101.099V183.013C100.975 183.028 100.806 183.036 100.59 183.036C100.252 183.036 99.9821 182.966 99.7819 182.828C99.5894 182.689 99.4624 182.462 99.4008 182.146C99.2391 182.447 98.9734 182.689 98.6038 182.874C98.2419 183.059 97.8415 183.151 97.4026 183.151ZM97.495 182.297C98.1187 182.297 98.5846 182.139 98.8926 181.823C99.2083 181.507 99.3661 181.095 99.3661 180.587V180.056L97.495 180.425C97.0792 180.502 96.7905 180.622 96.6288 180.784C96.4671 180.938 96.3862 181.142 96.3862 181.396C96.3862 181.681 96.4825 181.904 96.675 182.066C96.8752 182.22 97.1485 182.297 97.495 182.297ZM105.575 183.013C104.397 183.013 103.808 182.451 103.808 181.326V177.746H101.787V176.891H103.808V175.459H104.779V176.891H107.216V177.746H104.779V181.326C104.779 181.881 105.044 182.158 105.575 182.158H107.216V183.013H105.575ZM110.711 183.151C110.102 183.151 109.617 182.947 109.255 182.539C108.894 182.123 108.713 181.554 108.713 180.83V176.891H109.683V180.564C109.683 181.157 109.787 181.596 109.995 181.881C110.21 182.158 110.537 182.297 110.976 182.297C111.454 182.297 111.831 182.143 112.108 181.835C112.385 181.519 112.524 181.088 112.524 180.541V176.891H113.494V183.013H112.57V182.019C112.231 182.774 111.612 183.151 110.711 183.151ZM117.717 183.151C117.186 183.151 116.728 183.059 116.343 182.874C115.958 182.689 115.653 182.443 115.43 182.135C115.215 181.819 115.091 181.469 115.061 181.084L116.077 181.015C116.139 181.392 116.304 181.688 116.574 181.904C116.851 182.119 117.232 182.227 117.717 182.227C118.171 182.227 118.522 182.162 118.768 182.031C119.022 181.9 119.149 181.696 119.149 181.419C119.149 181.242 119.107 181.095 119.022 180.98C118.938 180.864 118.78 180.768 118.549 180.691C118.318 180.606 117.979 180.526 117.532 180.449C116.939 180.341 116.474 180.21 116.135 180.056C115.804 179.894 115.569 179.694 115.43 179.455C115.292 179.217 115.222 178.932 115.222 178.601C115.222 178.069 115.422 177.63 115.823 177.284C116.223 176.93 116.797 176.753 117.544 176.753C118.052 176.753 118.476 176.845 118.814 177.03C119.161 177.207 119.434 177.446 119.634 177.746C119.835 178.038 119.965 178.362 120.027 178.716L119.011 178.785C118.941 178.462 118.78 178.196 118.526 177.988C118.279 177.781 117.948 177.677 117.532 177.677C117.086 177.677 116.755 177.765 116.539 177.942C116.323 178.119 116.216 178.339 116.216 178.601C116.216 178.909 116.331 179.128 116.562 179.259C116.793 179.39 117.186 179.501 117.74 179.594C118.372 179.694 118.861 179.825 119.207 179.987C119.554 180.141 119.796 180.333 119.935 180.564C120.073 180.795 120.143 181.08 120.143 181.419C120.143 181.781 120.035 182.093 119.819 182.354C119.611 182.608 119.323 182.805 118.953 182.943C118.591 183.082 118.179 183.151 117.717 183.151ZM124.585 178.589L124.539 174.812H125.567V175.736L125.289 178.589H124.585ZM122.841 178.589L122.564 175.736V174.812H123.592L123.545 178.589H122.841ZM129.812 183.013V181.604H131.245V183.013H129.812ZM129.812 178.554V177.145H131.245V178.554H129.812ZM143.975 178.589L143.929 174.812H144.957V175.736L144.68 178.589H143.975ZM142.231 178.589L141.954 175.736V174.812H142.982L142.936 178.589H142.231ZM147.378 184.745V176.891H148.279L148.29 177.873C148.475 177.511 148.729 177.234 149.053 177.041C149.384 176.849 149.757 176.753 150.173 176.753C150.781 176.753 151.278 176.903 151.663 177.203C152.056 177.503 152.345 177.896 152.529 178.381C152.714 178.866 152.807 179.39 152.807 179.952C152.807 180.514 152.714 181.038 152.529 181.523C152.345 182.008 152.056 182.401 151.663 182.701C151.278 183.001 150.781 183.151 150.173 183.151C149.773 183.151 149.407 183.067 149.076 182.897C148.752 182.728 148.51 182.497 148.348 182.204V184.745H147.378ZM150.081 182.227C150.612 182.227 151.028 182.027 151.328 181.627C151.636 181.226 151.79 180.668 151.79 179.952C151.79 179.236 151.636 178.678 151.328 178.277C151.028 177.877 150.612 177.677 150.081 177.677C149.549 177.677 149.126 177.869 148.81 178.254C148.502 178.631 148.348 179.197 148.348 179.952C148.348 180.699 148.502 181.265 148.81 181.65C149.118 182.035 149.542 182.227 150.081 182.227ZM155.955 183.151C155.347 183.151 154.862 182.947 154.5 182.539C154.138 182.123 153.957 181.554 153.957 180.83V176.891H154.927V180.564C154.927 181.157 155.031 181.596 155.239 181.881C155.455 182.158 155.782 182.297 156.221 182.297C156.698 182.297 157.075 182.143 157.353 181.835C157.63 181.519 157.768 181.088 157.768 180.541V176.891H158.739V183.013H157.815V182.019C157.476 182.774 156.856 183.151 155.955 183.151ZM163.227 183.151C162.804 183.151 162.426 183.059 162.095 182.874C161.764 182.682 161.51 182.42 161.333 182.089L161.298 183.013H160.42V174.812H161.391V177.746C161.545 177.492 161.783 177.265 162.107 177.064C162.43 176.857 162.804 176.753 163.227 176.753C163.766 176.753 164.232 176.883 164.625 177.145C165.017 177.407 165.318 177.777 165.526 178.254C165.741 178.731 165.849 179.297 165.849 179.952C165.849 180.606 165.741 181.172 165.526 181.65C165.318 182.127 165.017 182.497 164.625 182.759C164.232 183.02 163.766 183.151 163.227 183.151ZM163.169 182.227C163.685 182.227 164.09 182.023 164.382 181.615C164.682 181.207 164.833 180.653 164.833 179.952C164.833 179.244 164.682 178.689 164.382 178.289C164.09 177.881 163.693 177.677 163.192 177.677C162.63 177.677 162.188 177.881 161.864 178.289C161.549 178.689 161.391 179.244 161.391 179.952C161.391 180.653 161.549 181.207 161.864 181.615C162.18 182.023 162.615 182.227 163.169 182.227ZM166.537 183.013V182.158H168.998V176.452C168.998 176.206 168.928 176.013 168.79 175.875C168.651 175.736 168.459 175.667 168.212 175.667H166.768V174.812H168.258C169.398 174.812 169.968 175.382 169.968 176.522V182.158H172.081V183.013H166.537ZM173.232 183.013V182.158H175.692V177.746H173.347V176.891H176.662V182.158H178.776V183.013H173.232ZM175.6 175.933V174.801H176.616V175.933H175.6ZM182.352 183.151C181.821 183.151 181.363 183.059 180.978 182.874C180.593 182.689 180.288 182.443 180.065 182.135C179.849 181.819 179.726 181.469 179.695 181.084L180.712 181.015C180.773 181.392 180.939 181.688 181.209 181.904C181.486 182.119 181.867 182.227 182.352 182.227C182.806 182.227 183.157 182.162 183.403 182.031C183.657 181.9 183.784 181.696 183.784 181.419C183.784 181.242 183.742 181.095 183.657 180.98C183.572 180.864 183.415 180.768 183.184 180.691C182.953 180.606 182.614 180.526 182.167 180.449C181.574 180.341 181.108 180.21 180.77 180.056C180.439 179.894 180.204 179.694 180.065 179.455C179.926 179.217 179.857 178.932 179.857 178.601C179.857 178.069 180.057 177.63 180.458 177.284C180.858 176.93 181.432 176.753 182.179 176.753C182.687 176.753 183.11 176.845 183.449 177.03C183.796 177.207 184.069 177.446 184.269 177.746C184.469 178.038 184.6 178.362 184.662 178.716L183.646 178.785C183.576 178.462 183.415 178.196 183.16 177.988C182.914 177.781 182.583 177.677 182.167 177.677C181.721 177.677 181.389 177.765 181.174 177.942C180.958 178.119 180.85 178.339 180.85 178.601C180.85 178.909 180.966 179.128 181.197 179.259C181.428 179.39 181.821 179.501 182.375 179.594C183.006 179.694 183.495 179.825 183.842 179.987C184.188 180.141 184.431 180.333 184.57 180.564C184.708 180.795 184.777 181.08 184.777 181.419C184.777 181.781 184.67 182.093 184.454 182.354C184.246 182.608 183.957 182.805 183.588 182.943C183.226 183.082 182.814 183.151 182.352 183.151ZM186.39 183.013V174.812H187.36V177.85C187.522 177.473 187.764 177.195 188.088 177.018C188.411 176.841 188.781 176.753 189.197 176.753C189.859 176.753 190.363 176.968 190.71 177.399C191.064 177.831 191.241 178.389 191.241 179.074V183.013H190.271V179.351C190.271 178.189 189.843 177.607 188.989 177.607C188.496 177.607 188.099 177.757 187.799 178.058C187.506 178.358 187.36 178.793 187.36 179.363V183.013H186.39ZM195.267 183.151C194.69 183.151 194.189 183.02 193.766 182.759C193.35 182.497 193.027 182.127 192.796 181.65C192.572 181.165 192.461 180.599 192.461 179.952C192.461 179.305 192.572 178.743 192.796 178.266C193.027 177.788 193.346 177.419 193.754 177.157C194.17 176.887 194.659 176.753 195.221 176.753C195.752 176.753 196.222 176.88 196.63 177.134C197.038 177.38 197.358 177.742 197.589 178.219C197.82 178.697 197.935 179.278 197.935 179.963V180.252H193.477C193.516 180.907 193.689 181.4 193.997 181.731C194.313 182.062 194.736 182.227 195.267 182.227C195.668 182.227 195.995 182.135 196.249 181.95C196.511 181.758 196.692 181.507 196.792 181.199L197.831 181.28C197.67 181.827 197.362 182.277 196.907 182.632C196.461 182.978 195.914 183.151 195.267 183.151ZM193.477 179.398H196.873C196.827 178.805 196.653 178.37 196.353 178.092C196.053 177.815 195.675 177.677 195.221 177.677C194.751 177.677 194.363 177.823 194.055 178.115C193.754 178.4 193.562 178.828 193.477 179.398ZM201.246 183.151C200.707 183.151 200.241 183.02 199.848 182.759C199.456 182.497 199.151 182.127 198.936 181.65C198.728 181.172 198.624 180.606 198.624 179.952C198.624 179.297 198.728 178.731 198.936 178.254C199.151 177.777 199.456 177.407 199.848 177.145C200.241 176.883 200.707 176.753 201.246 176.753C201.677 176.753 202.054 176.857 202.378 177.064C202.701 177.265 202.936 177.492 203.082 177.746V174.812H204.052V183.013H203.175L203.14 182.089C202.971 182.42 202.72 182.682 202.389 182.874C202.058 183.059 201.677 183.151 201.246 183.151ZM201.304 182.227C201.858 182.227 202.293 182.023 202.609 181.615C202.924 181.207 203.082 180.653 203.082 179.952C203.082 179.244 202.924 178.689 202.609 178.289C202.293 177.881 201.85 177.677 201.28 177.677C200.78 177.677 200.38 177.881 200.079 178.289C199.787 178.689 199.64 179.244 199.64 179.952C199.64 180.653 199.787 181.207 200.079 181.615C200.38 182.023 200.788 182.227 201.304 182.227ZM208.61 178.589L208.564 174.812H209.592V175.736L209.315 178.589H208.61ZM206.866 178.589L206.589 175.736V174.812H207.617L207.571 178.589H206.866ZM213.942 184.814L214.485 183.013H213.861V181.604H215.247V182.851L214.519 184.814H213.942ZM79.3404 195.589L79.2942 191.812H80.3221V192.736L80.0449 195.589H79.3404ZM77.5963 195.589L77.3191 192.736V191.812H78.3471L78.3009 195.589H77.5963ZM85.4458 200.151C84.876 200.151 84.3794 200.02 83.9559 199.759C83.5324 199.497 83.2051 199.127 82.9741 198.65C82.7431 198.165 82.6276 197.599 82.6276 196.952C82.6276 196.305 82.7431 195.743 82.9741 195.266C83.2051 194.788 83.5324 194.419 83.9559 194.157C84.3794 193.887 84.876 193.753 85.4458 193.753C86.1311 193.753 86.6971 193.937 87.1437 194.307C87.598 194.669 87.8867 195.192 88.0099 195.878L86.9935 195.947C86.9011 195.539 86.7163 195.227 86.4391 195.012C86.1696 194.788 85.8385 194.677 85.4458 194.677C84.8837 194.677 84.441 194.881 84.1176 195.289C83.8019 195.689 83.644 196.244 83.644 196.952C83.644 197.66 83.8019 198.219 84.1176 198.627C84.441 199.027 84.8837 199.227 85.4458 199.227C85.8385 199.227 86.1773 199.112 86.4622 198.881C86.7548 198.65 86.9473 198.303 87.0397 197.841L88.0561 197.911C87.9329 198.588 87.6365 199.131 87.1668 199.539C86.7048 199.947 86.1311 200.151 85.4458 200.151ZM90.9391 200.151C90.5541 200.151 90.2076 200.082 89.8996 199.943C89.5916 199.805 89.3491 199.612 89.172 199.366C88.9949 199.112 88.9063 198.819 88.9063 198.488C88.9063 197.964 89.0603 197.56 89.3683 197.275C89.684 196.983 90.1768 196.771 90.8467 196.64L92.9026 196.224C92.9026 195.701 92.7833 195.312 92.5446 195.058C92.3136 194.804 91.9786 194.677 91.5397 194.677C91.1162 194.677 90.7851 194.773 90.5464 194.965C90.3077 195.15 90.1422 195.42 90.0498 195.774L89.0218 195.693C89.1373 195.115 89.4107 194.65 89.8419 194.295C90.2808 193.934 90.8467 193.753 91.5397 193.753C92.2789 193.753 92.8526 193.976 93.2607 194.422C93.6688 194.861 93.8728 195.47 93.8728 196.247V198.788C93.8728 198.927 93.9036 199.023 93.9652 199.077C94.0268 199.131 94.1192 199.158 94.2424 199.158H94.6351V200.013C94.5119 200.028 94.3425 200.036 94.1269 200.036C93.7881 200.036 93.5186 199.966 93.3184 199.828C93.1259 199.689 92.9989 199.462 92.9373 199.146C92.7756 199.447 92.5099 199.689 92.1403 199.874C91.7784 200.059 91.378 200.151 90.9391 200.151ZM91.0315 199.297C91.6552 199.297 92.1211 199.139 92.4291 198.823C92.7448 198.507 92.9026 198.095 92.9026 197.587V197.056L91.0315 197.425C90.6157 197.502 90.327 197.622 90.1653 197.784C90.0036 197.938 89.9227 198.142 89.9227 198.396C89.9227 198.681 90.019 198.904 90.2115 199.066C90.4117 199.22 90.685 199.297 91.0315 199.297ZM99.112 200.013C97.9339 200.013 97.3449 199.451 97.3449 198.326V194.746H95.3236V193.891H97.3449V192.459H98.3151V193.891H100.752V194.746H98.3151V198.326C98.3151 198.881 98.5807 199.158 99.112 199.158H100.752V200.013H99.112ZM104.779 200.151C104.201 200.151 103.701 200.02 103.277 199.759C102.861 199.497 102.538 199.127 102.307 198.65C102.084 198.165 101.972 197.599 101.972 196.952C101.972 196.305 102.084 195.743 102.307 195.266C102.538 194.788 102.857 194.419 103.265 194.157C103.681 193.887 104.17 193.753 104.732 193.753C105.264 193.753 105.733 193.88 106.141 194.134C106.55 194.38 106.869 194.742 107.1 195.219C107.331 195.697 107.447 196.278 107.447 196.963V197.252H102.988C103.027 197.907 103.2 198.4 103.508 198.731C103.824 199.062 104.247 199.227 104.779 199.227C105.179 199.227 105.506 199.135 105.76 198.95C106.022 198.758 106.203 198.507 106.303 198.199L107.343 198.28C107.181 198.827 106.873 199.277 106.419 199.632C105.972 199.978 105.425 200.151 104.779 200.151ZM102.988 196.398H106.384C106.338 195.805 106.165 195.37 105.864 195.092C105.564 194.815 105.187 194.677 104.732 194.677C104.263 194.677 103.874 194.823 103.566 195.115C103.265 195.4 103.073 195.828 102.988 196.398ZM111.103 201.884C110.449 201.884 109.891 201.722 109.429 201.399C108.967 201.075 108.67 200.644 108.539 200.105L109.556 200.036C109.648 200.321 109.81 200.544 110.041 200.706C110.28 200.875 110.634 200.96 111.103 200.96C111.658 200.96 112.081 200.848 112.374 200.625C112.674 200.402 112.824 200.067 112.824 199.62V198.627C112.678 198.95 112.443 199.208 112.12 199.401C111.796 199.593 111.435 199.689 111.034 199.689C110.518 199.689 110.056 199.562 109.648 199.308C109.248 199.054 108.932 198.704 108.701 198.257C108.478 197.81 108.366 197.298 108.366 196.721C108.366 196.136 108.478 195.624 108.701 195.185C108.924 194.738 109.232 194.388 109.625 194.134C110.025 193.88 110.48 193.753 110.988 193.753C111.419 193.753 111.804 193.853 112.143 194.053C112.489 194.253 112.732 194.523 112.871 194.861V193.891H113.795V199.597C113.795 200.313 113.556 200.871 113.078 201.272C112.609 201.68 111.95 201.884 111.103 201.884ZM111.08 198.765C111.604 198.765 112.024 198.584 112.339 198.222C112.655 197.853 112.817 197.352 112.824 196.721C112.84 196.09 112.686 195.593 112.362 195.231C112.039 194.861 111.612 194.677 111.08 194.677C110.541 194.677 110.122 194.861 109.821 195.231C109.529 195.593 109.382 196.09 109.382 196.721C109.382 197.352 109.533 197.853 109.833 198.222C110.141 198.584 110.557 198.765 111.08 198.765ZM117.602 200.151C117.039 200.151 116.547 200.02 116.123 199.759C115.707 199.497 115.384 199.127 115.153 198.65C114.922 198.165 114.806 197.599 114.806 196.952C114.806 196.297 114.922 195.731 115.153 195.254C115.384 194.777 115.707 194.407 116.123 194.145C116.547 193.883 117.039 193.753 117.602 193.753C118.164 193.753 118.653 193.883 119.068 194.145C119.492 194.407 119.819 194.777 120.05 195.254C120.281 195.731 120.397 196.297 120.397 196.952C120.397 197.599 120.281 198.165 120.05 198.65C119.819 199.127 119.492 199.497 119.068 199.759C118.653 200.02 118.164 200.151 117.602 200.151ZM117.602 199.227C118.164 199.227 118.599 199.027 118.907 198.627C119.222 198.219 119.38 197.66 119.38 196.952C119.38 196.244 119.222 195.689 118.907 195.289C118.599 194.881 118.164 194.677 117.602 194.677C117.039 194.677 116.601 194.881 116.285 195.289C115.977 195.689 115.823 196.244 115.823 196.952C115.823 197.66 115.977 198.219 116.285 198.627C116.601 199.027 117.039 199.227 117.602 199.227ZM121.64 200.013V199.158H123.233V194.746H121.64V193.891H124.042L124.111 195.069C124.319 194.284 124.808 193.891 125.578 193.891H126.837V194.769H125.59C125.143 194.769 124.8 194.904 124.562 195.173C124.323 195.435 124.204 195.816 124.204 196.317V199.158H126.144V200.013H121.64ZM128.657 201.745V200.89H129.362C129.578 200.89 129.735 200.856 129.836 200.787C129.943 200.725 130.024 200.621 130.078 200.475L130.298 199.897H129.963L127.687 193.891H128.75L130.609 198.996L132.353 193.891H133.416L130.933 200.787C130.817 201.118 130.644 201.36 130.413 201.514C130.182 201.668 129.862 201.745 129.454 201.745H128.657ZM137.512 195.589L137.466 191.812H138.494V192.736L138.216 195.589H137.512ZM135.768 195.589L135.491 192.736V191.812H136.518L136.472 195.589H135.768ZM142.739 200.013V198.604H144.172V200.013H142.739ZM142.739 195.554V194.145H144.172V195.554H142.739ZM156.902 195.589L156.856 191.812H157.884V192.736L157.607 195.589H156.902ZM155.158 195.589L154.881 192.736V191.812H155.909L155.863 195.589H155.158ZM163.227 200.151C162.804 200.151 162.426 200.059 162.095 199.874C161.764 199.682 161.51 199.42 161.333 199.089L161.298 200.013H160.42V191.812H161.391V194.746C161.545 194.492 161.783 194.265 162.107 194.064C162.43 193.857 162.804 193.753 163.227 193.753C163.766 193.753 164.232 193.883 164.625 194.145C165.017 194.407 165.318 194.777 165.526 195.254C165.741 195.731 165.849 196.297 165.849 196.952C165.849 197.606 165.741 198.172 165.526 198.65C165.318 199.127 165.017 199.497 164.625 199.759C164.232 200.02 163.766 200.151 163.227 200.151ZM163.169 199.227C163.685 199.227 164.09 199.023 164.382 198.615C164.682 198.207 164.833 197.653 164.833 196.952C164.833 196.244 164.682 195.689 164.382 195.289C164.09 194.881 163.693 194.677 163.192 194.677C162.63 194.677 162.188 194.881 161.864 195.289C161.549 195.689 161.391 196.244 161.391 196.952C161.391 197.653 161.549 198.207 161.864 198.615C162.18 199.023 162.615 199.227 163.169 199.227ZM166.537 200.013V199.158H168.998V193.452C168.998 193.206 168.928 193.013 168.79 192.875C168.651 192.736 168.459 192.667 168.212 192.667H166.768V191.812H168.258C169.398 191.812 169.968 192.382 169.968 193.522V199.158H172.081V200.013H166.537ZM175.773 200.151C175.211 200.151 174.718 200.02 174.295 199.759C173.879 199.497 173.555 199.127 173.324 198.65C173.093 198.165 172.978 197.599 172.978 196.952C172.978 196.297 173.093 195.731 173.324 195.254C173.555 194.777 173.879 194.407 174.295 194.145C174.718 193.883 175.211 193.753 175.773 193.753C176.335 193.753 176.824 193.883 177.24 194.145C177.663 194.407 177.991 194.777 178.222 195.254C178.453 195.731 178.568 196.297 178.568 196.952C178.568 197.599 178.453 198.165 178.222 198.65C177.991 199.127 177.663 199.497 177.24 199.759C176.824 200.02 176.335 200.151 175.773 200.151ZM175.773 199.227C176.335 199.227 176.77 199.027 177.078 198.627C177.394 198.219 177.552 197.66 177.552 196.952C177.552 196.244 177.394 195.689 177.078 195.289C176.77 194.881 176.335 194.677 175.773 194.677C175.211 194.677 174.772 194.881 174.456 195.289C174.148 195.689 173.994 196.244 173.994 196.952C173.994 197.66 174.148 198.219 174.456 198.627C174.772 199.027 175.211 199.227 175.773 199.227ZM182.202 201.884C181.547 201.884 180.989 201.722 180.527 201.399C180.065 201.075 179.769 200.644 179.638 200.105L180.654 200.036C180.747 200.321 180.908 200.544 181.139 200.706C181.378 200.875 181.732 200.96 182.202 200.96C182.756 200.96 183.18 200.848 183.472 200.625C183.773 200.402 183.923 200.067 183.923 199.62V198.627C183.776 198.95 183.542 199.208 183.218 199.401C182.895 199.593 182.533 199.689 182.133 199.689C181.617 199.689 181.155 199.562 180.747 199.308C180.346 199.054 180.03 198.704 179.799 198.257C179.576 197.81 179.464 197.298 179.464 196.721C179.464 196.136 179.576 195.624 179.799 195.185C180.023 194.738 180.331 194.388 180.723 194.134C181.124 193.88 181.578 193.753 182.086 193.753C182.518 193.753 182.903 193.853 183.241 194.053C183.588 194.253 183.83 194.523 183.969 194.861V193.891H184.893V199.597C184.893 200.313 184.654 200.871 184.177 201.272C183.707 201.68 183.049 201.884 182.202 201.884ZM182.179 198.765C182.702 198.765 183.122 198.584 183.438 198.222C183.753 197.853 183.915 197.352 183.923 196.721C183.938 196.09 183.784 195.593 183.461 195.231C183.137 194.861 182.71 194.677 182.179 194.677C181.64 194.677 181.22 194.861 180.92 195.231C180.627 195.593 180.481 196.09 180.481 196.721C180.481 197.352 180.631 197.853 180.931 198.222C181.239 198.584 181.655 198.765 182.179 198.765ZM189.22 195.589L189.173 191.812H190.201V192.736L189.924 195.589H189.22ZM187.476 195.589L187.198 192.736V191.812H188.226L188.18 195.589H187.476ZM58.1712 218.341H57.536V217.44C58.152 217.455 58.5832 217.382 58.8296 217.221C59.0837 217.059 59.2107 216.778 59.2107 216.377V215.315C59.2107 214.737 59.3339 214.283 59.5803 213.952C59.8344 213.621 60.1424 213.417 60.5043 213.34V213.328C60.1501 213.244 59.846 213.043 59.5919 212.728C59.3378 212.404 59.2107 211.954 59.2107 211.376V210.314C59.2107 209.906 59.0837 209.621 58.8296 209.459C58.5832 209.297 58.152 209.228 57.536 209.251V208.35H58.1712C58.7872 208.35 59.2685 208.535 59.615 208.905C59.9615 209.274 60.1347 209.752 60.1347 210.337V211.295C60.1347 211.788 60.2387 212.173 60.4466 212.45C60.6545 212.728 60.9471 212.866 61.3244 212.866V213.825C60.9471 213.825 60.6545 213.963 60.4466 214.241C60.2387 214.51 60.1347 214.895 60.1347 215.396V216.354C60.1347 216.94 59.9615 217.417 59.615 217.787C59.2685 218.156 58.7872 218.341 58.1712 218.341ZM65.2815 218.814L65.8244 217.013H65.2007V215.604H66.5867V216.851L65.859 218.814H65.2815ZM45.2442 235.341H44.609V234.44C45.225 234.455 45.6562 234.382 45.9026 234.221C46.1567 234.059 46.2837 233.778 46.2837 233.377V232.315C46.2837 231.737 46.4069 231.283 46.6533 230.952C46.9074 230.621 47.2154 230.417 47.5773 230.34V230.328C47.2231 230.244 46.919 230.043 46.6649 229.728C46.4108 229.404 46.2837 228.954 46.2837 228.376V227.314C46.2837 226.906 46.1567 226.621 45.9026 226.459C45.6562 226.297 45.225 226.228 44.609 226.251V225.35H45.2442C45.8602 225.35 46.3415 225.535 46.688 225.905C47.0345 226.274 47.2077 226.752 47.2077 227.337V228.295C47.2077 228.788 47.3117 229.173 47.5196 229.45C47.7275 229.728 48.0201 229.866 48.3974 229.866V230.825C48.0201 230.825 47.7275 230.963 47.5196 231.241C47.3117 231.51 47.2077 231.895 47.2077 232.396V233.354C47.2077 233.94 47.0345 234.417 46.688 234.787C46.3415 235.156 45.8602 235.341 45.2442 235.341Z" fill="black" fill-opacity="0.8"/>
<path d="M39.8357 23.6769C39.3345 23.6769 38.904 23.5922 38.544 23.4228C38.184 23.2534 37.9052 23.0275 37.7076 22.7452C37.5099 22.4558 37.397 22.1346 37.3688 21.7817L38.4593 21.7182C38.5157 22.0287 38.6569 22.2722 38.8828 22.4487C39.1086 22.6252 39.4298 22.7134 39.8462 22.7134C40.2274 22.7134 40.5203 22.6605 40.725 22.5546C40.9368 22.4487 41.0426 22.2828 41.0426 22.057C41.0426 21.9158 41.0073 21.7993 40.9368 21.7076C40.8662 21.6088 40.7321 21.5276 40.5344 21.4641C40.3439 21.3935 40.0615 21.3229 39.6874 21.2523C39.1298 21.1535 38.6922 21.03 38.3746 20.8818C38.057 20.7265 37.8311 20.5394 37.697 20.3206C37.5699 20.1018 37.5064 19.8336 37.5064 19.516C37.5064 19.0219 37.6899 18.6125 38.057 18.2878C38.431 17.9561 38.9781 17.7902 39.698 17.7902C40.1992 17.7902 40.6121 17.8749 40.9368 18.0443C41.2685 18.2137 41.5226 18.4396 41.6991 18.7219C41.8826 18.9972 41.999 19.2972 42.0484 19.6218L40.9579 19.6854C40.9015 19.4101 40.7638 19.1878 40.545 19.0184C40.3333 18.8419 40.0509 18.7537 39.698 18.7537C39.3169 18.7537 39.0381 18.8278 38.8616 18.976C38.6922 19.1242 38.6075 19.3042 38.6075 19.516C38.6075 19.7701 38.7063 19.9536 38.904 20.0665C39.1016 20.1795 39.4545 20.2818 39.9627 20.3736C40.5344 20.4724 40.9756 20.5924 41.2861 20.7335C41.6038 20.8747 41.8226 21.0512 41.9426 21.2629C42.0696 21.4747 42.1331 21.7358 42.1331 22.0464C42.1331 22.5546 41.9214 22.9534 41.4979 23.2428C41.0744 23.5322 40.5203 23.6769 39.8357 23.6769ZM43.3889 23.5498V22.6499H44.8182V18.8172H43.3889V17.9173H45.6652L45.7288 18.9972C45.9193 18.2772 46.3711 17.9173 47.084 17.9173H48.2803V18.849H47.1263C46.3005 18.849 45.8876 19.3007 45.8876 20.2042V22.6499H47.6451V23.5498H43.3889ZM51.7277 23.6769C51.2054 23.6769 50.7466 23.5569 50.3514 23.3169C49.9561 23.0698 49.6491 22.7275 49.4302 22.2899C49.2114 21.8452 49.102 21.3264 49.102 20.7335C49.102 20.1406 49.2114 19.6254 49.4302 19.1878C49.6491 18.7431 49.9561 18.4008 50.3514 18.1608C50.7466 17.9137 51.2054 17.7902 51.7277 17.7902C52.37 17.7902 52.9065 17.9702 53.337 18.3302C53.7747 18.6831 54.0464 19.1772 54.1523 19.8124L53.0618 19.8865C52.9771 19.5336 52.8182 19.2619 52.5853 19.0713C52.3524 18.8737 52.0701 18.7748 51.7383 18.7748C51.2584 18.7748 50.8843 18.9513 50.616 19.3042C50.3478 19.6501 50.2137 20.1265 50.2137 20.7335C50.2137 21.3405 50.3478 21.8205 50.616 22.1734C50.8843 22.5193 51.2584 22.6922 51.7383 22.6922C52.0771 22.6922 52.3665 22.5934 52.6065 22.3958C52.8535 22.1911 53.0159 21.8911 53.0935 21.4958L54.184 21.5594C54.0782 22.2017 53.8029 22.7169 53.3582 23.1051C52.9135 23.4863 52.37 23.6769 51.7277 23.6769ZM55.4186 24.7144L58.6161 15.6092H59.6325L56.435 24.7144H55.4186ZM64.2551 23.5498C63.1257 23.5498 62.5611 23.0098 62.5611 21.9299V18.8172H60.7824V17.9173H62.5611V16.5938H63.6304V17.9173H65.822V18.8172H63.6304V21.877C63.6304 22.3922 63.8774 22.6499 64.3715 22.6499H65.822V23.5498H64.2551ZM69.3753 23.6769C68.853 23.6769 68.3942 23.5569 67.9989 23.3169C67.6107 23.0769 67.3072 22.7381 67.0884 22.3005C66.8766 21.8558 66.7708 21.3335 66.7708 20.7335C66.7708 20.1336 66.8766 19.6148 67.0884 19.1772C67.3072 18.7325 67.6107 18.3902 67.9989 18.1502C68.3942 17.9102 68.853 17.7902 69.3753 17.7902C69.8976 17.7902 70.3529 17.9102 70.7411 18.1502C71.1363 18.3902 71.4398 18.7325 71.6516 19.1772C71.8704 19.6148 71.9798 20.1336 71.9798 20.7335C71.9798 21.3335 71.8704 21.8558 71.6516 22.3005C71.4398 22.7381 71.1363 23.0769 70.7411 23.3169C70.3529 23.5569 69.8976 23.6769 69.3753 23.6769ZM69.3753 22.6922C69.8482 22.6922 70.2117 22.5193 70.4658 22.1734C70.727 21.8276 70.8575 21.3476 70.8575 20.7335C70.8575 20.1195 70.727 19.6395 70.4658 19.2936C70.2117 18.9478 69.8482 18.7748 69.3753 18.7748C68.9024 18.7748 68.5353 18.9478 68.2742 19.2936C68.0201 19.6395 67.893 20.1195 67.893 20.7335C67.893 21.3476 68.0201 21.8276 68.2742 22.1734C68.5353 22.5193 68.9024 22.6922 69.3753 22.6922ZM75.3001 23.6769C74.7778 23.6769 74.319 23.5569 73.9238 23.3169C73.5356 23.0769 73.2321 22.7381 73.0132 22.3005C72.8015 21.8558 72.6956 21.3335 72.6956 20.7335C72.6956 20.1336 72.8015 19.6148 73.0132 19.1772C73.2321 18.7325 73.5356 18.3902 73.9238 18.1502C74.319 17.9102 74.7778 17.7902 75.3001 17.7902C75.8225 17.7902 76.2777 17.9102 76.6659 18.1502C77.0612 18.3902 77.3647 18.7325 77.5765 19.1772C77.7953 19.6148 77.9047 20.1336 77.9047 20.7335C77.9047 21.3335 77.7953 21.8558 77.5765 22.3005C77.3647 22.7381 77.0612 23.0769 76.6659 23.3169C76.2777 23.5569 75.8225 23.6769 75.3001 23.6769ZM75.3001 22.6922C75.7731 22.6922 76.1366 22.5193 76.3907 22.1734C76.6518 21.8276 76.7824 21.3476 76.7824 20.7335C76.7824 20.1195 76.6518 19.6395 76.3907 19.2936C76.1366 18.9478 75.7731 18.7748 75.3001 18.7748C74.8272 18.7748 74.4602 18.9478 74.199 19.2936C73.9449 19.6395 73.8179 20.1195 73.8179 20.7335C73.8179 21.3476 73.9449 21.8276 74.199 22.1734C74.4602 22.5193 74.8272 22.6922 75.3001 22.6922ZM78.6417 23.5498V22.6499H80.8439V17.6314C80.8439 17.4126 80.7839 17.2432 80.6639 17.1232C80.5439 16.9961 80.371 16.9326 80.1451 16.9326H78.8534V16.0327H80.2615C81.3626 16.0327 81.9132 16.5832 81.9132 17.6843V22.6499H83.8084V23.5498H78.6417ZM87.2346 23.6769C86.7334 23.6769 86.3029 23.5922 85.9429 23.4228C85.5829 23.2534 85.3041 23.0275 85.1065 22.7452C84.9089 22.4558 84.7959 22.1346 84.7677 21.7817L85.8582 21.7182C85.9147 22.0287 86.0558 22.2722 86.2817 22.4487C86.5076 22.6252 86.8287 22.7134 87.2452 22.7134C87.6263 22.7134 87.9192 22.6605 88.1239 22.5546C88.3357 22.4487 88.4416 22.2828 88.4416 22.057C88.4416 21.9158 88.4063 21.7993 88.3357 21.7076C88.2651 21.6088 88.131 21.5276 87.9334 21.4641C87.7428 21.3935 87.4604 21.3229 87.0864 21.2523C86.5287 21.1535 86.0911 21.03 85.7735 20.8818C85.4559 20.7265 85.23 20.5394 85.0959 20.3206C84.9689 20.1018 84.9053 19.8336 84.9053 19.516C84.9053 19.0219 85.0888 18.6125 85.4559 18.2878C85.83 17.9561 86.377 17.7902 87.0969 17.7902C87.5981 17.7902 88.011 17.8749 88.3357 18.0443C88.6674 18.2137 88.9215 18.4396 89.098 18.7219C89.2815 18.9972 89.398 19.2972 89.4474 19.6218L88.3569 19.6854C88.3004 19.4101 88.1627 19.1878 87.9439 19.0184C87.7322 18.8419 87.4499 18.7537 87.0969 18.7537C86.7158 18.7537 86.437 18.8278 86.2605 18.976C86.0911 19.1242 86.0064 19.3042 86.0064 19.516C86.0064 19.7701 86.1052 19.9536 86.3029 20.0665C86.5005 20.1795 86.8534 20.2818 87.3616 20.3736C87.9334 20.4724 88.3745 20.5924 88.6851 20.7335C89.0027 20.8747 89.2215 21.0512 89.3415 21.2629C89.4685 21.4747 89.5321 21.7358 89.5321 22.0464C89.5321 22.5546 89.3203 22.9534 88.8968 23.2428C88.4733 23.5322 87.9192 23.6769 87.2346 23.6769ZM90.9678 24.7144L94.1653 15.6092H95.1817L91.9842 24.7144H90.9678ZM98.2373 23.6769C97.8844 23.6769 97.5668 23.6133 97.2844 23.4863C97.0021 23.3592 96.7762 23.1792 96.6068 22.9463C96.4445 22.7134 96.3633 22.4416 96.3633 22.1311C96.3633 21.6511 96.508 21.2806 96.7974 21.0194C97.0939 20.7512 97.5385 20.5571 98.1314 20.4371L99.9525 20.0559C99.9525 19.1807 99.5713 18.7431 98.809 18.7431C98.4561 18.7431 98.1808 18.8242 97.9832 18.9866C97.7856 19.1489 97.6515 19.3748 97.5809 19.6642L96.4586 19.5901C96.5645 19.0536 96.8221 18.6196 97.2315 18.2878C97.6409 17.9561 98.1667 17.7902 98.809 17.7902C99.529 17.7902 100.076 17.9949 100.45 18.4043C100.831 18.8137 101.022 19.3783 101.022 20.0983V22.3217C101.022 22.4487 101.047 22.5405 101.096 22.5969C101.152 22.6463 101.237 22.671 101.35 22.671H101.668V23.5498C101.625 23.5569 101.555 23.5639 101.456 23.571C101.364 23.578 101.272 23.5816 101.181 23.5816C100.531 23.5816 100.147 23.3028 100.027 22.7452C99.8854 23.0204 99.6525 23.2463 99.3278 23.4228C99.0102 23.5922 98.6467 23.6769 98.2373 23.6769ZM98.3961 22.7981C98.9114 22.7981 99.2996 22.6675 99.5607 22.4064C99.8219 22.1381 99.9525 21.7817 99.9525 21.337V20.9029L98.3855 21.2206C98.0467 21.2911 97.8103 21.3935 97.6762 21.5276C97.5421 21.6546 97.475 21.8276 97.475 22.0464C97.475 22.2864 97.5562 22.4734 97.7185 22.6075C97.8809 22.7346 98.1067 22.7981 98.3961 22.7981ZM102.511 25.1379V17.9173H103.527L103.538 18.8278C103.707 18.489 103.936 18.2313 104.226 18.0549C104.522 17.8784 104.864 17.7902 105.253 17.7902C105.796 17.7902 106.241 17.9278 106.587 18.2031C106.933 18.4713 107.19 18.8278 107.36 19.2725C107.529 19.7171 107.614 20.2042 107.614 20.7335C107.614 21.2629 107.529 21.7499 107.36 22.1946C107.19 22.6393 106.933 22.9993 106.587 23.2745C106.241 23.5427 105.796 23.6769 105.253 23.6769C104.879 23.6769 104.543 23.5992 104.247 23.4439C103.957 23.2886 103.735 23.0734 103.58 22.7981V25.1379H102.511ZM105.052 22.6922C105.503 22.6922 105.856 22.5228 106.11 22.184C106.364 21.8452 106.491 21.3617 106.491 20.7335C106.491 20.1053 106.364 19.6218 106.11 19.283C105.856 18.9442 105.503 18.7748 105.052 18.7748C104.607 18.7748 104.25 18.9407 103.982 19.2725C103.714 19.5971 103.58 20.0842 103.58 20.7335C103.58 21.3829 103.71 21.8735 103.972 22.2052C104.24 22.5299 104.6 22.6922 105.052 22.6922ZM108.478 23.5498V22.6499H110.68V18.8172H108.584V17.9173H111.76V22.6499H113.644V23.5498H108.478ZM110.616 17.102V15.9903H111.718V17.102H110.616ZM116.054 23.5498V22.1523H117.494V23.5498H116.054ZM123.504 23.5498C122.374 23.5498 121.81 23.0098 121.81 21.9299V18.8172H120.031V17.9173H121.81V16.5938H122.879V17.9173H125.071V18.8172H122.879V21.877C122.879 22.3922 123.126 22.6499 123.62 22.6499H125.071V23.5498H123.504ZM128.709 23.6769C128.207 23.6769 127.777 23.5922 127.417 23.4228C127.057 23.2534 126.778 23.0275 126.581 22.7452C126.383 22.4558 126.27 22.1346 126.242 21.7817L127.332 21.7182C127.389 22.0287 127.53 22.2722 127.756 22.4487C127.982 22.6252 128.303 22.7134 128.719 22.7134C129.1 22.7134 129.393 22.6605 129.598 22.5546C129.81 22.4487 129.916 22.2828 129.916 22.057C129.916 21.9158 129.88 21.7993 129.81 21.7076C129.739 21.6088 129.605 21.5276 129.407 21.4641C129.217 21.3935 128.934 21.3229 128.56 21.2523C128.003 21.1535 127.565 21.03 127.248 20.8818C126.93 20.7265 126.704 20.5394 126.57 20.3206C126.443 20.1018 126.379 19.8336 126.379 19.516C126.379 19.0219 126.563 18.6125 126.93 18.2878C127.304 17.9561 127.851 17.7902 128.571 17.7902C129.072 17.7902 129.485 17.8749 129.81 18.0443C130.141 18.2137 130.396 18.4396 130.572 18.7219C130.756 18.9972 130.872 19.2972 130.921 19.6218L129.831 19.6854C129.774 19.4101 129.637 19.1878 129.418 19.0184C129.206 18.8419 128.924 18.7537 128.571 18.7537C128.19 18.7537 127.911 18.8278 127.735 18.976C127.565 19.1242 127.48 19.3042 127.48 19.516C127.48 19.7701 127.579 19.9536 127.777 20.0665C127.975 20.1795 128.327 20.2818 128.836 20.3736C129.407 20.4724 129.849 20.5924 130.159 20.7335C130.477 20.8747 130.696 21.0512 130.816 21.2629C130.943 21.4747 131.006 21.7358 131.006 22.0464C131.006 22.5546 130.794 22.9534 130.371 23.2428C129.947 23.5322 129.393 23.6769 128.709 23.6769ZM131.87 23.5498L133.924 20.6594L131.976 17.9173H133.183L134.559 19.9289L135.904 17.9173H137.132L135.195 20.6806L137.227 23.5498H136.01L134.559 21.39L133.098 23.5498H131.87Z" fill="black" fill-opacity="0.6"/>
<line x1="19.2456" y1="38.9812" x2="236.779" y2="38.9812" stroke="black" stroke-opacity="0.4" stroke-width="0.9625" stroke-dasharray="5.78 5.78"/>
<rect y="112.612" width="257.95" height="270.463" fill="url(#paint1_linear_2159_141)"/>
<defs>
<linearGradient id="paint0_linear_2159_141" x1="128.975" y1="0" x2="128.975" y2="267.575" gradientUnits="userSpaceOnUse">
<stop/>
<stop offset="1" stop-opacity="0"/>
</linearGradient>
<linearGradient id="paint1_linear_2159_141" x1="128.975" y1="112.612" x2="128.975" y2="383.075" gradientUnits="userSpaceOnUse">
<stop stop-color="white" stop-opacity="0"/>
<stop offset="1" stop-color="white"/>
</linearGradient>
</defs>
</svg>
